<svg width="515" height="148" viewBox="0 0 515 148" fill="none" xmlns="http://www.w3.org/2000/svg">
<path d="M154.872 77.48H160.12V96.04C159.309 96.3387 158.008 96.7013 156.216 97.128C154.424 97.5973 152.312 97.832 149.88 97.832C147.491 97.832 145.315 97.384 143.352 96.488C141.389 95.5493 139.704 94.2053 138.296 92.456C136.931 90.7067 135.864 88.552 135.096 85.992C134.328 83.3893 133.944 80.4453 133.944 77.16C133.944 73.832 134.371 70.888 135.224 68.328C136.077 65.768 137.229 63.6133 138.68 61.864C140.173 60.1147 141.901 58.792 143.864 57.896C145.827 56.9573 147.939 56.488 150.2 56.488C151.651 56.488 152.931 56.5947 154.04 56.808C155.149 57.0213 156.088 57.2773 156.856 57.576C157.667 57.8747 158.328 58.1947 158.84 58.536C159.352 58.8347 159.736 59.0693 159.992 59.24L158.264 63.656C157.283 62.888 156.109 62.2693 154.744 61.8C153.421 61.288 152.013 61.032 150.52 61.032C148.899 61.032 147.384 61.416 145.976 62.184C144.611 62.952 143.437 64.04 142.456 65.448C141.475 66.856 140.707 68.5627 140.152 70.568C139.597 72.5307 139.32 74.728 139.32 77.16C139.32 79.5493 139.555 81.7253 140.024 83.688C140.536 85.6507 141.261 87.336 142.2 88.744C143.139 90.152 144.291 91.2613 145.656 92.072C147.064 92.84 148.664 93.224 150.456 93.224C151.693 93.224 152.653 93.1387 153.336 92.968C154.019 92.7973 154.531 92.6267 154.872 92.456V77.48ZM176.376 62.696C175.267 62.696 174.307 62.312 173.496 61.544C172.685 60.776 172.28 59.7307 172.28 58.408C172.28 57.0853 172.685 56.04 173.496 55.272C174.307 54.504 175.267 54.12 176.376 54.12C177.528 54.12 178.488 54.504 179.256 55.272C180.067 56.04 180.472 57.0853 180.472 58.408C180.472 59.7307 180.067 60.776 179.256 61.544C178.488 62.312 177.528 62.696 176.376 62.696ZM175.032 71.72H166.456V67.304H180.28V85.544C180.28 88.488 180.685 90.472 181.496 91.496C182.307 92.4773 183.523 92.968 185.144 92.968C186.381 92.968 187.512 92.8187 188.536 92.52C189.603 92.2213 190.435 91.9013 191.032 91.56L191.8 96.04C191.544 96.168 191.181 96.3387 190.712 96.552C190.243 96.7227 189.688 96.8933 189.048 97.064C188.451 97.2347 187.768 97.384 187 97.512C186.275 97.64 185.507 97.704 184.696 97.704C182.819 97.704 181.261 97.448 180.024 96.936C178.787 96.424 177.784 95.656 177.016 94.632C176.291 93.608 175.779 92.3493 175.48 90.856C175.181 89.32 175.032 87.5493 175.032 85.544V71.72ZM199.544 68.136C201.464 67.6667 203.363 67.304 205.24 67.048C207.16 66.792 208.952 66.664 210.616 66.664C214.584 66.664 217.571 67.688 219.576 69.736C221.624 71.784 222.648 75.0693 222.648 79.592V97H217.4V80.552C217.4 78.632 217.229 77.0747 216.888 75.88C216.547 74.6853 216.056 73.768 215.416 73.128C214.819 72.4453 214.072 71.976 213.176 71.72C212.323 71.464 211.384 71.336 210.36 71.336C209.507 71.336 208.589 71.4 207.608 71.528C206.669 71.6133 205.752 71.7413 204.856 71.912V97H199.544V68.136ZM242.232 80.68C243.384 81.5333 244.685 82.6213 246.136 83.944C247.587 85.224 249.016 86.6107 250.424 88.104C251.875 89.5973 253.24 91.1333 254.52 92.712C255.8 94.248 256.824 95.6773 257.592 97H251.32C250.509 95.6773 249.507 94.3333 248.312 92.968C247.117 91.56 245.837 90.216 244.472 88.936C243.149 87.656 241.805 86.4827 240.44 85.416C239.117 84.3493 237.923 83.4533 236.856 82.728V97H231.544V53.544L236.856 52.648V79.72C239.203 77.672 241.549 75.6453 243.896 73.64C246.243 71.592 248.355 69.48 250.232 67.304H256.44C254.605 69.48 252.387 71.72 249.784 74.024C247.224 76.328 244.707 78.5467 242.232 80.68ZM281.144 94.248C280.547 94.5893 279.629 94.952 278.392 95.336C277.155 95.72 275.725 95.912 274.104 95.912C272.355 95.912 270.712 95.6347 269.176 95.08C267.683 94.4827 266.36 93.608 265.208 92.456C264.099 91.2613 263.203 89.768 262.52 87.976C261.88 86.1413 261.56 83.9867 261.56 81.512C261.56 79.336 261.859 77.352 262.456 75.56C263.096 73.7253 263.992 72.1467 265.144 70.824C266.339 69.5013 267.789 68.4773 269.496 67.752C271.203 66.984 273.144 66.6 275.32 66.6C277.88 66.6 280.056 66.792 281.848 67.176C283.683 67.5173 285.219 67.8587 286.456 68.2V94.696C286.456 99.304 285.283 102.632 282.936 104.68C280.632 106.728 277.133 107.752 272.44 107.752C270.52 107.752 268.771 107.603 267.192 107.304C265.656 107.005 264.291 106.643 263.096 106.216L264.056 101.544C265.165 102.013 266.424 102.397 267.832 102.696C269.283 102.995 270.861 103.144 272.568 103.144C275.64 103.144 277.837 102.525 279.16 101.288C280.483 100.051 281.144 98.0453 281.144 95.272V94.248ZM281.144 71.976C280.632 71.8053 279.928 71.656 279.032 71.528C278.136 71.3573 276.92 71.272 275.384 71.272C272.653 71.272 270.563 72.2107 269.112 74.088C267.704 75.9653 267 78.4613 267 81.576C267 83.2827 267.192 84.7547 267.576 85.992C268.003 87.1867 268.557 88.1893 269.24 89C269.965 89.768 270.776 90.344 271.672 90.728C272.568 91.0693 273.528 91.24 274.552 91.24C275.875 91.24 277.112 91.048 278.264 90.664C279.459 90.28 280.419 89.832 281.144 89.32V71.976ZM320.44 82.152C320.44 84.4987 320.099 86.632 319.416 88.552C318.776 90.4293 317.859 92.0507 316.664 93.416C315.469 94.7813 314.04 95.848 312.376 96.616C310.712 97.3413 308.899 97.704 306.936 97.704C305.016 97.704 303.224 97.3413 301.56 96.616C299.939 95.848 298.531 94.7813 297.336 93.416C296.141 92.0507 295.203 90.4293 294.52 88.552C293.88 86.632 293.56 84.4987 293.56 82.152C293.56 79.8053 293.88 77.672 294.52 75.752C295.203 73.832 296.141 72.2107 297.336 70.888C298.531 69.5227 299.939 68.4773 301.56 67.752C303.224 66.984 305.016 66.6 306.936 66.6C308.899 66.6 310.712 66.984 312.376 67.752C314.04 68.4773 315.469 69.5227 316.664 70.888C317.859 72.2107 318.776 73.832 319.416 75.752C320.099 77.672 320.44 79.8053 320.44 82.152ZM315 82.152C315 78.7813 314.275 76.136 312.824 74.216C311.373 72.2533 309.411 71.272 306.936 71.272C304.504 71.272 302.563 72.2533 301.112 74.216C299.704 76.136 299 78.7813 299 82.152C299 85.48 299.704 88.1253 301.112 90.088C302.563 92.008 304.504 92.968 306.936 92.968C309.411 92.968 311.373 92.008 312.824 90.088C314.275 88.1253 315 85.48 315 82.152ZM357.624 68.136C360.184 67.1547 362.595 66.664 364.856 66.664C366.093 66.664 367.245 66.856 368.312 67.24C369.421 67.5813 370.36 68.136 371.128 68.904C372.963 67.4107 374.925 66.664 377.016 66.664C378.04 66.664 379 66.856 379.896 67.24C380.835 67.624 381.645 68.2 382.328 68.968C383.053 69.736 383.629 70.696 384.056 71.848C384.483 73 384.696 74.344 384.696 75.88V97H379.896V75.752C379.896 74.216 379.555 73.0427 378.872 72.232C378.189 71.4213 377.336 71.016 376.312 71.016C375.8 71.016 375.267 71.144 374.712 71.4C374.157 71.656 373.645 72.0613 373.176 72.616C373.432 73.5973 373.56 74.6853 373.56 75.88V85.544H368.76V75.816C368.76 74.3227 368.525 73.1493 368.056 72.296C367.587 71.4427 366.669 71.016 365.304 71.016C364.451 71.016 363.491 71.208 362.424 71.592V97H357.624V68.136ZM403.32 93.224C404.643 93.224 405.816 93.1813 406.84 93.096C407.907 93.0107 408.781 92.904 409.464 92.776V83.944C408.781 83.7307 407.949 83.56 406.968 83.432C406.029 83.304 405.027 83.24 403.96 83.24C402.979 83.24 402.019 83.3253 401.08 83.496C400.141 83.624 399.309 83.88 398.584 84.264C397.859 84.648 397.261 85.16 396.792 85.8C396.323 86.3973 396.088 87.1653 396.088 88.104C396.088 90.024 396.728 91.368 398.008 92.136C399.331 92.8613 401.101 93.224 403.32 93.224ZM402.808 66.6C405.027 66.6 406.883 66.8773 408.376 67.432C409.912 67.9867 411.149 68.7547 412.088 69.736C413.027 70.7173 413.688 71.912 414.072 73.32C414.456 74.728 414.648 76.264 414.648 77.928V96.488C413.411 96.7013 411.768 96.9573 409.72 97.256C407.715 97.5547 405.645 97.704 403.512 97.704C401.891 97.704 400.312 97.5547 398.776 97.256C397.24 97 395.875 96.5307 394.68 95.848C393.485 95.1227 392.525 94.1413 391.8 92.904C391.075 91.6667 390.712 90.088 390.712 88.168C390.712 86.4613 391.075 85.032 391.8 83.88C392.568 82.6853 393.528 81.7253 394.68 81C395.875 80.2747 397.219 79.7627 398.712 79.464C400.248 79.1227 401.784 78.952 403.32 78.952C405.411 78.952 407.459 79.1867 409.464 79.656V78.184C409.464 77.288 409.357 76.4347 409.144 75.624C408.973 74.7707 408.611 74.0027 408.056 73.32C407.544 72.6373 406.819 72.104 405.88 71.72C404.984 71.2933 403.811 71.08 402.36 71.08C400.525 71.08 398.925 71.208 397.56 71.464C396.195 71.72 395.149 71.976 394.424 72.232L393.784 67.88C394.509 67.5387 395.704 67.24 397.368 66.984C399.075 66.728 400.888 66.6 402.808 66.6ZM432.376 62.696C431.267 62.696 430.307 62.312 429.496 61.544C428.685 60.776 428.28 59.7307 428.28 58.408C428.28 57.0853 428.685 56.04 429.496 55.272C430.307 54.504 431.267 54.12 432.376 54.12C433.528 54.12 434.488 54.504 435.256 55.272C436.067 56.04 436.472 57.0853 436.472 58.408C436.472 59.7307 436.067 60.776 435.256 61.544C434.488 62.312 433.528 62.696 432.376 62.696ZM431.032 71.72H422.456V67.304H436.28V85.544C436.28 88.488 436.685 90.472 437.496 91.496C438.307 92.4773 439.523 92.968 441.144 92.968C442.381 92.968 443.512 92.8187 444.536 92.52C445.603 92.2213 446.435 91.9013 447.032 91.56L447.8 96.04C447.544 96.168 447.181 96.3387 446.712 96.552C446.243 96.7227 445.688 96.8933 445.048 97.064C444.451 97.2347 443.768 97.384 443 97.512C442.275 97.64 441.507 97.704 440.696 97.704C438.819 97.704 437.261 97.448 436.024 96.936C434.787 96.424 433.784 95.656 433.016 94.632C432.291 93.608 431.779 92.3493 431.48 90.856C431.181 89.32 431.032 87.5493 431.032 85.544V71.72ZM472.632 97.704C470.755 97.704 469.197 97.448 467.96 96.936C466.723 96.424 465.741 95.656 465.016 94.632C464.291 93.608 463.779 92.3493 463.48 90.856C463.181 89.32 463.032 87.5493 463.032 85.544V57.448H454.456V52.968H468.28V85.544C468.28 87.0373 468.365 88.2533 468.536 89.192C468.749 90.1307 469.048 90.8987 469.432 91.496C469.859 92.0507 470.371 92.4347 470.968 92.648C471.565 92.8613 472.269 92.968 473.08 92.968C474.317 92.968 475.469 92.8187 476.536 92.52C477.603 92.2213 478.435 91.9013 479.032 91.56L479.8 96.04C479.544 96.168 479.181 96.3387 478.712 96.552C478.243 96.7227 477.688 96.8933 477.048 97.064C476.408 97.2347 475.704 97.384 474.936 97.512C474.211 97.64 473.443 97.704 472.632 97.704Z" fill="black"/>
<path fill-rule="evenodd" clip-rule="evenodd" d="M91 37.5056C84.1987 34.3718 76.8234 33 69.989 33C46.1274 33 23 55.7739 23 80.5034C68.0082 76.4163 65.9829 93.3635 56 119C72.8531 89.5158 89.0689 73.0858 116 80.858C116 66.3593 111.741 55.7143 105.301 48.1963L91 56.5V37.5056Z" fill="#FFD951"/>
</svg>
