<svg width="183" height="134" viewBox="0 0 183 134" fill="none" xmlns="http://www.w3.org/2000/svg">
<path d="M2.35795 19H0.511364L5.85227 4.45455H7.67045L13.0114 19H11.1648L6.81818 6.75568H6.70455L2.35795 19ZM3.03977 13.3182H10.483V14.8807H3.03977V13.3182ZM23.2315 8.09091C23.1463 7.37121 22.8007 6.8125 22.1946 6.41477C21.5885 6.01705 20.8452 5.81818 19.9645 5.81818C19.3205 5.81818 18.7571 5.92235 18.2741 6.13068C17.7959 6.33901 17.4219 6.62547 17.152 6.99006C16.8868 7.35464 16.7543 7.76894 16.7543 8.23295C16.7543 8.62121 16.8466 8.95502 17.0312 9.23438C17.2206 9.509 17.4621 9.73864 17.7557 9.9233C18.0492 10.1032 18.357 10.2524 18.679 10.3707C19.0009 10.4844 19.2969 10.5767 19.5668 10.6477L21.044 11.0455C21.4228 11.1449 21.8442 11.2822 22.3082 11.4574C22.777 11.6326 23.2244 11.8717 23.6506 12.1747C24.0814 12.473 24.4366 12.8565 24.7159 13.3253C24.9953 13.794 25.1349 14.3693 25.1349 15.0511C25.1349 15.8371 24.929 16.5473 24.517 17.1818C24.1098 17.8163 23.5133 18.3205 22.7273 18.6946C21.946 19.0687 20.9967 19.2557 19.8793 19.2557C18.8376 19.2557 17.9356 19.0876 17.1733 18.7514C16.4157 18.4152 15.8191 17.9465 15.3835 17.3452C14.9527 16.7438 14.7088 16.0455 14.652 15.25H16.4702C16.5175 15.7992 16.7022 16.2538 17.0241 16.6136C17.3509 16.9687 17.7628 17.2339 18.2599 17.4091C18.7618 17.5795 19.3016 17.6648 19.8793 17.6648C20.5516 17.6648 21.1553 17.5559 21.6903 17.3381C22.2254 17.1155 22.6491 16.8078 22.9616 16.4148C23.2741 16.017 23.4304 15.553 23.4304 15.0227C23.4304 14.5398 23.2955 14.1468 23.0256 13.8438C22.7557 13.5407 22.4006 13.2945 21.9602 13.1051C21.5199 12.9157 21.044 12.75 20.5327 12.608L18.7429 12.0966C17.6065 11.7699 16.7069 11.3035 16.044 10.6974C15.3812 10.0914 15.0497 9.2983 15.0497 8.31818C15.0497 7.50379 15.2699 6.79356 15.7102 6.1875C16.1553 5.5767 16.7519 5.10322 17.5 4.76705C18.2528 4.42614 19.0933 4.25568 20.0213 4.25568C20.9588 4.25568 21.7921 4.42377 22.5213 4.75994C23.2505 5.09138 23.8281 5.54593 24.2543 6.12358C24.6851 6.70123 24.9124 7.35701 24.9361 8.09091H23.2315ZM39.7354 9H37.9741C37.8699 8.49337 37.6876 8.0483 37.4272 7.66477C37.1715 7.28125 36.859 6.95928 36.4897 6.69886C36.1251 6.43371 35.7203 6.23485 35.2752 6.10227C34.8301 5.9697 34.3661 5.90341 33.8832 5.90341C33.0025 5.90341 32.2047 6.12595 31.4897 6.57102C30.7795 7.0161 30.2137 7.67188 29.7923 8.53835C29.3756 9.40483 29.1673 10.4678 29.1673 11.7273C29.1673 12.9867 29.3756 14.0497 29.7923 14.9162C30.2137 15.7827 30.7795 16.4384 31.4897 16.8835C32.2047 17.3286 33.0025 17.5511 33.8832 17.5511C34.3661 17.5511 34.8301 17.4848 35.2752 17.3523C35.7203 17.2197 36.1251 17.0232 36.4897 16.7628C36.859 16.4976 37.1715 16.1733 37.4272 15.7898C37.6876 15.4015 37.8699 14.9564 37.9741 14.4545H39.7354C39.6029 15.1979 39.3614 15.8632 39.011 16.4503C38.6606 17.0374 38.225 17.5369 37.7042 17.9489C37.1834 18.3561 36.5986 18.6662 35.9499 18.8793C35.306 19.0923 34.6171 19.1989 33.8832 19.1989C32.6426 19.1989 31.5394 18.8958 30.5735 18.2898C29.6076 17.6837 28.8477 16.822 28.2937 15.7045C27.7397 14.5871 27.4627 13.2614 27.4627 11.7273C27.4627 10.1932 27.7397 8.86742 28.2937 7.75C28.8477 6.63258 29.6076 5.77083 30.5735 5.16477C31.5394 4.55871 32.6426 4.25568 33.8832 4.25568C34.6171 4.25568 35.306 4.36222 35.9499 4.57528C36.5986 4.78835 37.1834 5.10085 37.7042 5.51278C38.225 5.91998 38.6606 6.41714 39.011 7.00426C39.3614 7.58665 39.6029 8.25189 39.7354 9ZM44.343 4.45455V19H42.5817V4.45455H44.343ZM49.636 4.45455V19H47.8746V4.45455H49.636ZM60.4513 5.3C61.1313 5.36 61.9913 5.42 62.6513 5.42H72.4913C72.9913 5.42 73.5713 5.4 73.9713 5.38C73.9513 5.82 73.9313 6.46 73.9313 6.92V17.26C73.9313 17.98 73.9913 18.88 74.0113 19.18H72.2113C72.2113 18.88 72.2513 18.14 72.2513 17.42V7H62.6513C61.9113 7 60.9313 7.04 60.4513 7.08V5.3ZM60.2113 16.34C60.7113 16.38 61.5913 16.44 62.4113 16.44H73.1513V18.08H62.4713C61.6513 18.08 60.7513 18.1 60.2113 18.16V16.34ZM79.0513 10.34C79.6712 10.4 80.7113 10.46 81.8513 10.46C83.3113 10.46 91.3313 10.46 92.8113 10.46C93.8113 10.46 94.5113 10.38 94.9713 10.34V12.3C94.5513 12.28 93.7113 12.22 92.8313 12.22C91.3113 12.22 83.3313 12.22 81.8513 12.22C80.7513 12.22 79.6913 12.26 79.0513 12.3V10.34ZM110.151 4.62C110.651 5.34 111.511 6.68 111.971 7.64L110.831 8.16C110.331 7.1 109.691 6 109.031 5.1L110.151 4.62ZM112.551 3.62C113.091 4.32 113.971 5.64 114.431 6.58L113.311 7.14C112.791 6.08 112.131 5.02 111.471 4.14L112.551 3.62ZM103.131 17.5C103.131 16.4 103.131 7.56 103.131 5.88C103.131 5.3 103.071 4.42 102.971 3.8H104.931C104.871 4.4 104.791 5.28 104.791 5.88C104.791 9 104.811 16.56 104.811 17.5C104.811 18.14 104.851 19.22 104.931 19.88H102.991C103.091 19.24 103.131 18.26 103.131 17.5ZM104.431 9.04C107.091 9.8 111.111 11.34 113.331 12.44L112.631 14.12C110.351 12.9 106.611 11.48 104.431 10.8V9.04ZM128.291 5.36C128.031 7.44 127.631 9.78 127.011 11.92C125.791 16.02 124.191 18.14 122.351 18.14C120.551 18.14 118.771 16.1 118.771 12.78C118.771 8.44 122.631 4.66 127.531 4.66C132.211 4.66 135.191 7.96 135.191 12.02C135.191 16.2 132.431 19 127.671 19.62L126.751 18.14C127.391 18.08 127.991 18 128.471 17.9C131.031 17.32 133.551 15.4 133.551 11.94C133.551 8.74 131.331 6.1 127.491 6.1C123.091 6.1 120.351 9.72 120.351 12.66C120.351 15.18 121.491 16.3 122.391 16.3C123.331 16.3 124.411 14.94 125.431 11.56C126.011 9.66 126.431 7.4 126.631 5.32L128.291 5.36ZM143.151 3.24H150.411V4.58H143.151V3.24ZM145.111 7.42H148.931V8.76H144.691L145.111 7.42ZM143.951 11.96L144.591 10.82C145.691 11.54 147.011 12.58 147.631 13.26L146.971 14.56C146.351 13.8 145.051 12.72 143.951 11.96ZM150.531 4.48H151.891V16.02H150.531V4.48ZM154.171 2.52H155.591V18.72C155.591 19.68 155.351 20.1 154.771 20.34C154.191 20.58 153.191 20.62 151.631 20.62C151.551 20.24 151.331 19.58 151.131 19.16C152.331 19.2 153.391 19.18 153.731 19.18C154.051 19.16 154.171 19.06 154.171 18.72V2.52ZM145.091 3.7L146.551 3.9C146.011 7.36 144.991 11.58 142.831 14.12C142.611 13.82 142.191 13.34 141.891 13.08C143.851 10.74 144.731 6.78 145.091 3.7ZM148.351 7.42H148.631L148.891 7.36L149.751 7.64C148.971 14.16 146.771 18.46 143.691 20.66C143.491 20.3 143.011 19.74 142.711 19.52C145.651 17.5 147.691 13.58 148.351 7.74V7.42ZM141.671 2.28L143.071 2.68C141.931 6.12 140.151 9.62 138.171 11.94C138.031 11.6 137.631 10.78 137.371 10.42C139.131 8.42 140.711 5.36 141.671 2.28ZM140.071 7.22L141.411 5.86L141.451 5.9V20.6H140.071V7.22Z" fill="black"/>
<path d="M50.358 53H48.5114L53.8523 38.4545H55.6705L61.0114 53H59.1648L54.8182 40.7557H54.7045L50.358 53ZM51.0398 47.3182H58.483V48.8807H51.0398V47.3182ZM77.8935 52.0909L76.7997 51.0114L81.3026 46.5085H69.6406V44.946H81.3026L76.7997 40.4574L77.8935 39.3636L84.2571 45.7273L77.8935 52.0909ZM98.1829 53.1989C97.5863 53.1894 96.9897 53.0758 96.3931 52.858C95.7965 52.6402 95.252 52.2732 94.7596 51.7571C94.2672 51.2363 93.8718 50.5331 93.5735 49.6477C93.2752 48.7576 93.1261 47.6402 93.1261 46.2955C93.1261 45.0076 93.2468 43.8665 93.4883 42.8722C93.7298 41.8731 94.0801 41.0327 94.5394 40.3509C94.9987 39.6643 95.5527 39.1435 96.2013 38.7884C96.8548 38.4332 97.591 38.2557 98.4102 38.2557C99.2246 38.2557 99.949 38.419 100.583 38.7457C101.223 39.0677 101.743 39.5175 102.146 40.0952C102.548 40.6728 102.809 41.3381 102.927 42.0909H101.194C101.033 41.4375 100.721 40.8954 100.257 40.4645C99.7927 40.0336 99.1772 39.8182 98.4102 39.8182C97.2833 39.8182 96.3955 40.3082 95.7468 41.2884C95.1029 42.2685 94.7785 43.6439 94.7738 45.4148H94.8874C95.1526 45.0123 95.4674 44.669 95.832 44.3849C96.2013 44.0961 96.6085 43.8736 97.0536 43.7173C97.4987 43.5611 97.9698 43.483 98.467 43.483C99.3003 43.483 100.063 43.6913 100.754 44.108C101.445 44.5199 101.999 45.0904 102.416 45.8196C102.833 46.544 103.041 47.375 103.041 48.3125C103.041 49.2121 102.84 50.036 102.437 50.7841C102.035 51.5275 101.469 52.1193 100.74 52.5597C100.015 52.9953 99.163 53.2083 98.1829 53.1989ZM98.1829 51.6364C98.7795 51.6364 99.3145 51.4872 99.788 51.1889C100.266 50.8906 100.643 50.4905 100.917 49.9886C101.197 49.4867 101.336 48.928 101.336 48.3125C101.336 47.7112 101.201 47.1643 100.931 46.6719C100.666 46.1747 100.299 45.7794 99.8306 45.4858C99.3666 45.1922 98.8363 45.0455 98.2397 45.0455C97.7899 45.0455 97.3709 45.1354 96.9826 45.3153C96.5943 45.4905 96.2534 45.732 95.9599 46.0398C95.671 46.3475 95.4438 46.7003 95.2781 47.098C95.1123 47.491 95.0295 47.9053 95.0295 48.3409C95.0295 48.9186 95.1644 49.4583 95.4343 49.9602C95.7089 50.4621 96.083 50.867 96.5565 51.1747C97.0347 51.4825 97.5768 51.6364 98.1829 51.6364ZM110.379 53.1989C109.546 53.1989 108.795 53.0331 108.128 52.7017C107.46 52.3703 106.925 51.9157 106.523 51.3381C106.12 50.7604 105.9 50.1023 105.862 49.3636H107.567C107.633 50.0218 107.931 50.5663 108.462 50.9972C108.997 51.4233 109.636 51.6364 110.379 51.6364C110.976 51.6364 111.506 51.4967 111.97 51.2173C112.439 50.938 112.806 50.5545 113.071 50.0668C113.341 49.5743 113.476 49.018 113.476 48.3977C113.476 47.7633 113.336 47.1974 113.057 46.7003C112.782 46.1984 112.403 45.803 111.92 45.5142C111.438 45.2254 110.886 45.0786 110.266 45.0739C109.821 45.0691 109.364 45.1378 108.895 45.2798C108.426 45.4171 108.04 45.5947 107.737 45.8125L106.089 45.6136L106.97 38.4545H114.527V40.017H108.447L107.936 44.3068H108.021C108.32 44.0701 108.694 43.8736 109.143 43.7173C109.593 43.5611 110.062 43.483 110.55 43.483C111.44 43.483 112.233 43.696 112.929 44.1222C113.63 44.5436 114.179 45.1212 114.577 45.8551C114.979 46.589 115.18 47.4271 115.18 48.3693C115.18 49.2973 114.972 50.1259 114.555 50.8551C114.143 51.5795 113.575 52.1525 112.851 52.5739C112.126 52.9905 111.303 53.1989 110.379 53.1989Z" fill="black"/>
<path d="M53.7443 78.2557C53.053 78.2557 52.4257 78.1255 51.8622 77.8651C51.2988 77.5999 50.8513 77.2188 50.5199 76.7216C50.1884 76.2197 50.0227 75.6136 50.0227 74.9034C50.0227 74.2784 50.1458 73.7718 50.392 73.3835C50.6383 72.9905 50.9673 72.6828 51.3793 72.4602C51.7912 72.2377 52.2457 72.072 52.7429 71.9631C53.2448 71.8494 53.7491 71.7595 54.2557 71.6932C54.9186 71.608 55.456 71.544 55.8679 71.5014C56.2846 71.4541 56.5876 71.3759 56.777 71.267C56.9711 71.1581 57.0682 70.9687 57.0682 70.6989V70.642C57.0682 69.9413 56.8764 69.3968 56.4929 69.0085C56.1141 68.6203 55.5388 68.4261 54.767 68.4261C53.9669 68.4261 53.3395 68.6013 52.8849 68.9517C52.4304 69.3021 52.1108 69.6761 51.9261 70.0739L50.3352 69.5057C50.6193 68.8428 50.9981 68.3267 51.4716 67.9574C51.9498 67.5833 52.4706 67.3229 53.0341 67.1761C53.6023 67.0246 54.161 66.9489 54.7102 66.9489C55.0606 66.9489 55.4631 66.9915 55.9176 67.0767C56.3769 67.1572 56.8196 67.3253 57.2457 67.581C57.6766 67.8366 58.0341 68.2225 58.3182 68.7386C58.6023 69.2547 58.7443 69.946 58.7443 70.8125V78H57.0682V76.5227H56.983C56.8693 76.7595 56.6799 77.0128 56.4148 77.2827C56.1496 77.5526 55.7969 77.7822 55.3565 77.9716C54.9162 78.161 54.3788 78.2557 53.7443 78.2557ZM54 76.75C54.6629 76.75 55.2216 76.6198 55.6761 76.3594C56.1354 76.099 56.4811 75.7628 56.7131 75.3509C56.9498 74.9389 57.0682 74.5057 57.0682 74.0511V72.517C56.9972 72.6023 56.8409 72.6804 56.5994 72.7514C56.3627 72.8177 56.0881 72.8769 55.7756 72.929C55.4678 72.9763 55.1671 73.0189 54.8736 73.0568C54.5848 73.09 54.3504 73.1184 54.1705 73.142C53.7348 73.1989 53.3277 73.2912 52.9489 73.419C52.5748 73.5421 52.2718 73.7292 52.0398 73.9801C51.8125 74.2263 51.6989 74.5625 51.6989 74.9886C51.6989 75.571 51.9143 76.0114 52.3452 76.3097C52.7808 76.6032 53.3324 76.75 54 76.75ZM76.6474 77.0909L75.5536 76.0114L80.0565 71.5085H68.3945V69.946H80.0565L75.5536 65.4574L76.6474 64.3636L83.011 70.7273L76.6474 77.0909ZM96.7379 63.2557C97.3345 63.2604 97.9311 63.3741 98.5277 63.5966C99.1243 63.8191 99.6688 64.1884 100.161 64.7045C100.654 65.2159 101.049 65.9143 101.347 66.7997C101.646 67.6851 101.795 68.7955 101.795 70.1307C101.795 71.4233 101.672 72.5715 101.425 73.5753C101.184 74.5743 100.834 75.4171 100.374 76.1037C99.9197 76.7902 99.3658 77.3111 98.7124 77.6662C98.0637 78.0213 97.3298 78.1989 96.5107 78.1989C95.6963 78.1989 94.9695 78.0379 94.3303 77.7159C93.6958 77.3892 93.175 76.937 92.7678 76.3594C92.3653 75.777 92.1072 75.1023 91.9936 74.3352H93.7266C93.8828 75.0028 94.1929 75.5545 94.657 75.9901C95.1257 76.4209 95.7436 76.6364 96.5107 76.6364C97.6328 76.6364 98.5182 76.1463 99.1669 75.1662C99.8203 74.1861 100.147 72.8011 100.147 71.0114H100.033C99.7682 71.4091 99.4534 71.7524 99.0888 72.0412C98.7242 72.33 98.3194 72.5526 97.8743 72.7088C97.4292 72.8651 96.9557 72.9432 96.4538 72.9432C95.6205 72.9432 94.8558 72.7372 94.1598 72.3253C93.4685 71.9086 92.9145 71.3381 92.4979 70.6136C92.0859 69.8845 91.88 69.0511 91.88 68.1136C91.88 67.2235 92.0788 66.4091 92.4766 65.6705C92.879 64.9271 93.4425 64.3352 94.1669 63.8949C94.8961 63.4545 95.7531 63.2415 96.7379 63.2557ZM96.7379 64.8182C96.1413 64.8182 95.6039 64.9673 95.1257 65.2656C94.6522 65.5592 94.2758 65.9569 93.9964 66.4588C93.7218 66.956 93.5845 67.5076 93.5845 68.1136C93.5845 68.7197 93.7171 69.2713 93.9822 69.7685C94.2521 70.2609 94.6191 70.6539 95.0831 70.9474C95.5518 71.2363 96.0845 71.3807 96.6811 71.3807C97.1309 71.3807 97.55 71.2931 97.9382 71.1179C98.3265 70.938 98.665 70.6941 98.9538 70.3864C99.2474 70.0739 99.477 69.7211 99.6428 69.3281C99.8085 68.9304 99.8913 68.5161 99.8913 68.0852C99.8913 67.517 99.754 66.9844 99.4794 66.4872C99.2095 65.9901 98.8355 65.5876 98.3572 65.2798C97.8838 64.9721 97.344 64.8182 96.7379 64.8182ZM104.652 78L111.157 65.1307V65.017H103.657V63.4545H112.975V65.1023L106.498 78H104.652Z" fill="black"/>
<path d="M54.25 104.199C53.1799 104.199 52.2685 103.908 51.5156 103.325C50.7628 102.738 50.1875 101.888 49.7898 100.776C49.392 99.6581 49.1932 98.3087 49.1932 96.7273C49.1932 95.1553 49.392 93.813 49.7898 92.7003C50.1922 91.5829 50.7699 90.7306 51.5227 90.1435C52.2803 89.5516 53.1894 89.2557 54.25 89.2557C55.3106 89.2557 56.2173 89.5516 56.9702 90.1435C57.7277 90.7306 58.3054 91.5829 58.7031 92.7003C59.1056 93.813 59.3068 95.1553 59.3068 96.7273C59.3068 98.3087 59.108 99.6581 58.7102 100.776C58.3125 101.888 57.7372 102.738 56.9844 103.325C56.2315 103.908 55.3201 104.199 54.25 104.199ZM54.25 102.636C55.3106 102.636 56.1345 102.125 56.7216 101.102C57.3087 100.08 57.6023 98.6212 57.6023 96.7273C57.6023 95.4678 57.4673 94.3954 57.1974 93.5099C56.9323 92.6245 56.5488 91.9498 56.0469 91.4858C55.5497 91.0218 54.9508 90.7898 54.25 90.7898C53.1989 90.7898 52.3774 91.3082 51.7855 92.3452C51.1937 93.3774 50.8977 94.8381 50.8977 96.7273C50.8977 97.9867 51.0303 99.0568 51.2955 99.9375C51.5606 100.818 51.9418 101.488 52.4389 101.947C52.9408 102.407 53.5445 102.636 54.25 102.636ZM76.8778 103.091L75.7841 102.011L80.2869 97.5085H68.625V95.946H80.2869L75.7841 91.4574L76.8778 90.3636L83.2415 96.7273L76.8778 103.091ZM91.9968 101.017V99.5682L98.3888 89.4545H99.44V91.6989H98.7298L93.9002 99.3409V99.4545H102.508V101.017H91.9968ZM98.8434 104V100.577V99.902V89.4545H100.52V104H98.8434ZM109.829 104.199C108.853 104.199 107.992 104.026 107.244 103.68C106.5 103.33 105.92 102.849 105.504 102.239C105.087 101.623 104.881 100.922 104.886 100.136C104.881 99.5208 105.002 98.9527 105.248 98.4318C105.494 97.9062 105.83 97.4683 106.256 97.1179C106.687 96.7628 107.168 96.5379 107.698 96.4432V96.358C107.002 96.178 106.448 95.7874 106.036 95.1861C105.624 94.58 105.421 93.8911 105.425 93.1193C105.421 92.3807 105.608 91.7202 105.987 91.1378C106.365 90.5554 106.886 90.0961 107.549 89.7599C108.217 89.4238 108.977 89.2557 109.829 89.2557C110.672 89.2557 111.424 89.4238 112.087 89.7599C112.75 90.0961 113.271 90.5554 113.65 91.1378C114.033 91.7202 114.228 92.3807 114.232 93.1193C114.228 93.8911 114.017 94.58 113.6 95.1861C113.188 95.7874 112.641 96.178 111.96 96.358V96.4432C112.485 96.5379 112.959 96.7628 113.38 97.1179C113.801 97.4683 114.138 97.9062 114.388 98.4318C114.639 98.9527 114.767 99.5208 114.772 100.136C114.767 100.922 114.554 101.623 114.133 102.239C113.716 102.849 113.136 103.33 112.393 103.68C111.654 104.026 110.799 104.199 109.829 104.199ZM109.829 102.636C110.487 102.636 111.055 102.53 111.533 102.317C112.012 102.104 112.381 101.803 112.641 101.415C112.902 101.027 113.034 100.572 113.039 100.051C113.034 99.5019 112.892 99.0166 112.613 98.5952C112.334 98.1738 111.952 97.8423 111.469 97.6009C110.991 97.3594 110.444 97.2386 109.829 97.2386C109.209 97.2386 108.655 97.3594 108.167 97.6009C107.684 97.8423 107.303 98.1738 107.023 98.5952C106.749 99.0166 106.614 99.5019 106.619 100.051C106.614 100.572 106.739 101.027 106.995 101.415C107.255 101.803 107.627 102.104 108.11 102.317C108.593 102.53 109.166 102.636 109.829 102.636ZM109.829 95.733C110.35 95.733 110.811 95.6288 111.214 95.4205C111.621 95.2121 111.941 94.9209 112.173 94.5469C112.405 94.1728 112.523 93.7348 112.528 93.233C112.523 92.7405 112.407 92.312 112.18 91.9474C111.952 91.5781 111.638 91.294 111.235 91.0952C110.833 90.8916 110.364 90.7898 109.829 90.7898C109.284 90.7898 108.808 90.8916 108.401 91.0952C107.994 91.294 107.679 91.5781 107.457 91.9474C107.234 92.312 107.125 92.7405 107.13 93.233C107.125 93.7348 107.237 94.1728 107.464 94.5469C107.696 94.9209 108.015 95.2121 108.423 95.4205C108.83 95.6288 109.299 95.733 109.829 95.733Z" fill="black"/>
<path d="M57.75 114.455L57.608 124.909H55.9602L55.8182 114.455H57.75ZM56.7841 129.114C56.4337 129.114 56.133 128.988 55.8821 128.737C55.6312 128.486 55.5057 128.186 55.5057 127.835C55.5057 127.485 55.6312 127.184 55.8821 126.933C56.133 126.682 56.4337 126.557 56.7841 126.557C57.1345 126.557 57.4351 126.682 57.6861 126.933C57.937 127.184 58.0625 127.485 58.0625 127.835C58.0625 128.067 58.0033 128.28 57.8849 128.474C57.7713 128.669 57.6174 128.825 57.4233 128.943C57.2339 129.057 57.0208 129.114 56.7841 129.114ZM75.9442 128.091L74.8505 127.011L79.3533 122.509H67.6914V120.946H79.3533L74.8505 116.457L75.9442 115.364L82.3079 121.727L75.9442 128.091ZM96.3189 129.199C95.3814 129.199 94.5457 129.038 93.8118 128.716C93.0826 128.394 92.5026 127.946 92.0717 127.374C91.6456 126.796 91.4136 126.126 91.3757 125.364H93.1655C93.2034 125.832 93.3643 126.237 93.6484 126.578C93.9325 126.914 94.3042 127.175 94.7635 127.359C95.2228 127.544 95.7318 127.636 96.2905 127.636C96.9155 127.636 97.4695 127.527 97.9524 127.31C98.4354 127.092 98.8142 126.789 99.0888 126.401C99.3634 126.012 99.5007 125.562 99.5007 125.051C99.5007 124.516 99.3681 124.045 99.103 123.638C98.8378 123.226 98.4496 122.904 97.9382 122.672C97.4268 122.44 96.8018 122.324 96.0632 122.324H94.8984V120.761H96.0632C96.6409 120.761 97.1475 120.657 97.5831 120.449C98.0234 120.241 98.3667 119.947 98.6129 119.568C98.8639 119.189 98.9893 118.744 98.9893 118.233C98.9893 117.741 98.8804 117.312 98.6626 116.947C98.4448 116.583 98.1371 116.299 97.7393 116.095C97.3464 115.892 96.8823 115.79 96.3473 115.79C95.8454 115.79 95.3719 115.882 94.9268 116.067C94.4865 116.247 94.1267 116.509 93.8473 116.855C93.5679 117.196 93.4164 117.608 93.3928 118.091H91.6882C91.7166 117.329 91.9463 116.661 92.3771 116.088C92.808 115.51 93.3714 115.061 94.0675 114.739C94.7682 114.417 95.5376 114.256 96.3757 114.256C97.2753 114.256 98.0471 114.438 98.6911 114.803C99.335 115.162 99.8298 115.638 100.175 116.23C100.521 116.822 100.694 117.461 100.694 118.148C100.694 118.967 100.478 119.665 100.048 120.243C99.6214 120.821 99.0414 121.221 98.3075 121.443V121.557C99.2261 121.708 99.9434 122.099 100.46 122.729C100.976 123.354 101.234 124.128 101.234 125.051C101.234 125.842 101.018 126.552 100.587 127.182C100.161 127.807 99.5788 128.299 98.8402 128.659C98.1016 129.019 97.2611 129.199 96.3189 129.199ZM109.053 129.199C108.116 129.199 107.28 129.038 106.546 128.716C105.817 128.394 105.237 127.946 104.806 127.374C104.38 126.796 104.148 126.126 104.11 125.364H105.9C105.938 125.832 106.099 126.237 106.383 126.578C106.667 126.914 107.039 127.175 107.498 127.359C107.957 127.544 108.466 127.636 109.025 127.636C109.65 127.636 110.204 127.527 110.687 127.31C111.17 127.092 111.549 126.789 111.823 126.401C112.098 126.012 112.235 125.562 112.235 125.051C112.235 124.516 112.103 124.045 111.837 123.638C111.572 123.226 111.184 122.904 110.673 122.672C110.161 122.44 109.536 122.324 108.798 122.324H107.633V120.761H108.798C109.375 120.761 109.882 120.657 110.317 120.449C110.758 120.241 111.101 119.947 111.347 119.568C111.598 119.189 111.724 118.744 111.724 118.233C111.724 117.741 111.615 117.312 111.397 116.947C111.179 116.583 110.871 116.299 110.474 116.095C110.081 115.892 109.617 115.79 109.082 115.79C108.58 115.79 108.106 115.882 107.661 116.067C107.221 116.247 106.861 116.509 106.582 116.855C106.302 117.196 106.151 117.608 106.127 118.091H104.423C104.451 117.329 104.681 116.661 105.112 116.088C105.542 115.51 106.106 115.061 106.802 114.739C107.503 114.417 108.272 114.256 109.11 114.256C110.01 114.256 110.781 114.438 111.425 114.803C112.069 115.162 112.564 115.638 112.91 116.23C113.255 116.822 113.428 117.461 113.428 118.148C113.428 118.967 113.213 119.665 112.782 120.243C112.356 120.821 111.776 121.221 111.042 121.443V121.557C111.96 121.708 112.678 122.099 113.194 122.729C113.71 123.354 113.968 124.128 113.968 125.051C113.968 125.842 113.753 126.552 113.322 127.182C112.896 127.807 112.313 128.299 111.575 128.659C110.836 129.019 109.996 129.199 109.053 129.199Z" fill="black"/>
</svg>
