<svg width="175" height="183" viewBox="0 0 175 183" fill="none" xmlns="http://www.w3.org/2000/svg">
<path d="M40.06 4.4C40.62 4.46 41.22 4.5 41.86 4.5C43.02 4.5 47.68 4.5 48.8 4.5C49.36 4.5 50.08 4.46 50.66 4.4V6.06C50.06 6.02 49.36 5.98 48.8 5.98C47.68 5.98 43.02 5.98 41.9 5.98C41.22 5.98 40.58 6.02 40.06 6.06V4.4ZM37.68 9.42C38.22 9.48 38.8 9.52 39.42 9.52C40.58 9.52 51.44 9.52 52.5 9.52C52.92 9.52 53.58 9.48 54.08 9.42V11.08C53.64 11.04 53 11.02 52.5 11.02C51.44 11.02 40.58 11.02 39.42 11.02C38.82 11.02 38.22 11.04 37.68 11.08V9.42ZM47.1 10.22C47.1 12.74 46.78 14.82 45.9 16.5C45.16 17.84 43.66 19.28 41.96 20.14L40.48 19.06C42.02 18.4 43.46 17.26 44.26 15.98C45.26 14.4 45.4 12.44 45.42 10.24L47.1 10.22ZM51.7 2.76C52.2 3.48 52.92 4.7 53.32 5.5L52.24 5.98C51.86 5.18 51.18 3.98 50.64 3.22L51.7 2.76ZM53.88 1.96C54.42 2.7 55.18 3.94 55.56 4.68L54.5 5.16C54.06 4.3 53.4 3.16 52.84 2.42L53.88 1.96ZM59.42 5.3C60.1 5.36 60.96 5.42 61.62 5.42H71.46C71.96 5.42 72.54 5.4 72.94 5.38C72.92 5.82 72.9 6.46 72.9 6.92V17.26C72.9 17.98 72.96 18.88 72.98 19.18H71.18C71.18 18.88 71.22 18.14 71.22 17.42V7H61.62C60.88 7 59.9 7.04 59.42 7.08V5.3ZM59.18 16.34C59.68 16.38 60.56 16.44 61.38 16.44H72.12V18.08H61.44C60.62 18.08 59.72 18.1 59.18 18.16V16.34ZM78.02 10.34C78.64 10.4 79.68 10.46 80.82 10.46C82.28 10.46 90.3 10.46 91.78 10.46C92.78 10.46 93.48 10.38 93.94 10.34V12.3C93.52 12.28 92.68 12.22 91.8 12.22C90.28 12.22 82.3 12.22 80.82 12.22C79.72 12.22 78.66 12.26 78.02 12.3V10.34ZM109.12 4.62C109.62 5.34 110.48 6.68 110.94 7.64L109.8 8.16C109.3 7.1 108.66 6 108 5.1L109.12 4.62ZM111.52 3.62C112.06 4.32 112.94 5.64 113.4 6.58L112.28 7.14C111.76 6.08 111.1 5.02 110.44 4.14L111.52 3.62ZM102.1 17.5C102.1 16.4 102.1 7.56 102.1 5.88C102.1 5.3 102.04 4.42 101.94 3.8H103.9C103.84 4.4 103.76 5.28 103.76 5.88C103.76 9 103.78 16.56 103.78 17.5C103.78 18.14 103.82 19.22 103.9 19.88H101.96C102.06 19.24 102.1 18.26 102.1 17.5ZM103.4 9.04C106.06 9.8 110.08 11.34 112.3 12.44L111.6 14.12C109.32 12.9 105.58 11.48 103.4 10.8V9.04Z" fill="black"/>
<path d="M2.50568 53V51.7216L7.30682 46.4659C7.87027 45.8504 8.33428 45.3153 8.69886 44.8608C9.06345 44.4015 9.33333 43.9706 9.50852 43.5682C9.68845 43.161 9.77841 42.7348 9.77841 42.2898C9.77841 41.7784 9.6553 41.3357 9.40909 40.9616C9.16761 40.5876 8.83617 40.2988 8.41477 40.0952C7.99337 39.8916 7.51989 39.7898 6.99432 39.7898C6.43561 39.7898 5.94792 39.9058 5.53125 40.1378C5.11932 40.3651 4.79972 40.6847 4.57244 41.0966C4.34991 41.5085 4.23864 41.9915 4.23864 42.5455H2.5625C2.5625 41.6932 2.759 40.9451 3.15199 40.3011C3.54498 39.6572 4.08002 39.1553 4.7571 38.7955C5.43892 38.4356 6.2036 38.2557 7.05114 38.2557C7.90341 38.2557 8.65862 38.4356 9.31676 38.7955C9.97491 39.1553 10.491 39.6406 10.8651 40.2514C11.2391 40.8622 11.4261 41.5417 11.4261 42.2898C11.4261 42.8248 11.3291 43.348 11.1349 43.8594C10.9455 44.366 10.6141 44.9318 10.1406 45.5568C9.67188 46.1771 9.02083 46.9347 8.1875 47.8295L4.92045 51.3239V51.4375H11.6818V53H2.50568ZM14.6151 53V51.7216L19.4162 46.4659C19.9796 45.8504 20.4437 45.3153 20.8082 44.8608C21.1728 44.4015 21.4427 43.9706 21.6179 43.5682C21.7978 43.161 21.8878 42.7348 21.8878 42.2898C21.8878 41.7784 21.7647 41.3357 21.5185 40.9616C21.277 40.5876 20.9455 40.2988 20.5241 40.0952C20.1027 39.8916 19.6293 39.7898 19.1037 39.7898C18.545 39.7898 18.0573 39.9058 17.6406 40.1378C17.2287 40.3651 16.9091 40.6847 16.6818 41.0966C16.4593 41.5085 16.348 41.9915 16.348 42.5455H14.6719C14.6719 41.6932 14.8684 40.9451 15.2614 40.3011C15.6544 39.6572 16.1894 39.1553 16.8665 38.7955C17.5483 38.4356 18.313 38.2557 19.1605 38.2557C20.0128 38.2557 20.768 38.4356 21.4261 38.7955C22.0843 39.1553 22.6004 39.6406 22.9744 40.2514C23.3485 40.8622 23.5355 41.5417 23.5355 42.2898C23.5355 42.8248 23.4384 43.348 23.2443 43.8594C23.0549 44.366 22.7235 44.9318 22.25 45.5568C21.7812 46.1771 21.1302 46.9347 20.2969 47.8295L17.0298 51.3239V51.4375H23.7912V53H14.6151ZM27.179 53L33.6847 40.1307V40.017H26.1847V38.4545H35.5028V40.1023L29.0256 53H27.179ZM48.8888 38.4545V53H47.1275V40.3011H47.0423L43.4911 42.6591V40.8693L47.1275 38.4545H48.8888ZM53.0721 53V51.7216L57.8732 46.4659C58.4367 45.8504 58.9007 45.3153 59.2653 44.8608C59.6299 44.4015 59.8997 43.9706 60.0749 43.5682C60.2549 43.161 60.3448 42.7348 60.3448 42.2898C60.3448 41.7784 60.2217 41.3357 59.9755 40.9616C59.734 40.5876 59.4026 40.2988 58.9812 40.0952C58.5598 39.8916 58.0863 39.7898 57.5607 39.7898C57.002 39.7898 56.5143 39.9058 56.0977 40.1378C55.6857 40.3651 55.3661 40.6847 55.1388 41.0966C54.9163 41.5085 54.805 41.9915 54.805 42.5455H53.1289C53.1289 41.6932 53.3254 40.9451 53.7184 40.3011C54.1114 39.6572 54.6464 39.1553 55.3235 38.7955C56.0053 38.4356 56.77 38.2557 57.6175 38.2557C58.4698 38.2557 59.225 38.4356 59.8832 38.7955C60.5413 39.1553 61.0574 39.6406 61.4315 40.2514C61.8055 40.8622 61.9925 41.5417 61.9925 42.2898C61.9925 42.8248 61.8955 43.348 61.7013 43.8594C61.512 44.366 61.1805 44.9318 60.707 45.5568C60.2383 46.1771 59.5872 46.9347 58.7539 47.8295L55.4869 51.3239V51.4375H62.2482V53H53.0721ZM69.8121 38.2557C70.4087 38.2604 71.0053 38.3741 71.6019 38.5966C72.1985 38.8191 72.743 39.1884 73.2354 39.7045C73.7279 40.2159 74.1232 40.9143 74.4215 41.7997C74.7198 42.6851 74.869 43.7955 74.869 45.1307C74.869 46.4233 74.7459 47.5715 74.4996 48.5753C74.2582 49.5743 73.9078 50.4171 73.4485 51.1037C72.994 51.7902 72.44 52.3111 71.7866 52.6662C71.1379 53.0213 70.404 53.1989 69.5849 53.1989C68.7705 53.1989 68.0437 53.0379 67.4045 52.7159C66.77 52.3892 66.2492 51.937 65.842 51.3594C65.4395 50.777 65.1815 50.1023 65.0678 49.3352H66.8008C66.957 50.0028 67.2672 50.5545 67.7312 50.9901C68.1999 51.4209 68.8178 51.6364 69.5849 51.6364C70.707 51.6364 71.5924 51.1463 72.2411 50.1662C72.8945 49.1861 73.2212 47.8011 73.2212 46.0114H73.1076C72.8424 46.4091 72.5276 46.7524 72.163 47.0412C71.7984 47.33 71.3936 47.5526 70.9485 47.7088C70.5034 47.8651 70.0299 47.9432 69.5281 47.9432C68.6947 47.9432 67.93 47.7372 67.234 47.3253C66.5427 46.9086 65.9888 46.3381 65.5721 45.6136C65.1602 44.8845 64.9542 44.0511 64.9542 43.1136C64.9542 42.2235 65.1531 41.4091 65.5508 40.6705C65.9532 39.9271 66.5167 39.3352 67.2411 38.8949C67.9703 38.4545 68.8273 38.2415 69.8121 38.2557ZM69.8121 39.8182C69.2156 39.8182 68.6781 39.9673 68.1999 40.2656C67.7264 40.5592 67.35 40.9569 67.0707 41.4588C66.796 41.956 66.6587 42.5076 66.6587 43.1136C66.6587 43.7197 66.7913 44.2713 67.0565 44.7685C67.3263 45.2609 67.6933 45.6539 68.1573 45.9474C68.6261 46.2363 69.1587 46.3807 69.7553 46.3807C70.2051 46.3807 70.6242 46.2931 71.0124 46.1179C71.4007 45.938 71.7392 45.6941 72.0281 45.3864C72.3216 45.0739 72.5513 44.7211 72.717 44.3281C72.8827 43.9304 72.9656 43.5161 72.9656 43.0852C72.9656 42.517 72.8282 41.9844 72.5536 41.4872C72.2837 40.9901 71.9097 40.5876 71.4315 40.2798C70.958 39.9721 70.4182 39.8182 69.8121 39.8182ZM88.4006 38.4545V53H86.6392V40.3011H86.554L83.0028 42.6591V40.8693L86.6392 38.4545H88.4006ZM92.2429 50.017V48.5682L98.6349 38.4545H99.6861V40.6989H98.9759L94.1463 48.3409V48.4545H102.754V50.017H92.2429ZM99.0895 53V49.5767V48.902V38.4545H100.766V53H99.0895ZM105.87 53L112.376 40.1307V40.017H104.876V38.4545H114.194V40.1023L107.717 53H105.87ZM131.714 52.0909L130.62 51.0114L135.123 46.5085H123.461V44.946H135.123L130.62 40.4574L131.714 39.3636L138.077 45.7273L131.714 52.0909ZM150.348 38.98C151.788 39.14 153.628 39.22 155.648 39.22C157.568 39.22 159.588 39.1 161.028 38.94V40.58C159.668 40.68 157.488 40.82 155.648 40.82C153.648 40.82 151.928 40.74 150.348 40.6V38.98ZM151.148 47.04C150.908 47.82 150.748 48.56 150.748 49.3C150.748 50.84 152.308 51.88 155.508 51.88C158.248 51.88 160.828 51.58 162.348 51.1L162.368 52.82C160.928 53.2 158.388 53.5 155.548 53.5C151.488 53.5 149.128 52.18 149.128 49.66C149.128 48.62 149.348 47.68 149.528 46.88L151.148 47.04Z" fill="black"/>
<path d="M2.50568 181V179.722L7.30682 174.466C7.87027 173.85 8.33428 173.315 8.69886 172.861C9.06345 172.402 9.33333 171.971 9.50852 171.568C9.68845 171.161 9.77841 170.735 9.77841 170.29C9.77841 169.778 9.6553 169.336 9.40909 168.962C9.16761 168.588 8.83617 168.299 8.41477 168.095C7.99337 167.892 7.51989 167.79 6.99432 167.79C6.43561 167.79 5.94792 167.906 5.53125 168.138C5.11932 168.365 4.79972 168.685 4.57244 169.097C4.34991 169.509 4.23864 169.991 4.23864 170.545H2.5625C2.5625 169.693 2.759 168.945 3.15199 168.301C3.54498 167.657 4.08002 167.155 4.7571 166.795C5.43892 166.436 6.2036 166.256 7.05114 166.256C7.90341 166.256 8.65862 166.436 9.31676 166.795C9.97491 167.155 10.491 167.641 10.8651 168.251C11.2391 168.862 11.4261 169.542 11.4261 170.29C11.4261 170.825 11.3291 171.348 11.1349 171.859C10.9455 172.366 10.6141 172.932 10.1406 173.557C9.67188 174.177 9.02083 174.935 8.1875 175.83L4.92045 179.324V179.438H11.6818V181H2.50568ZM14.6151 181V179.722L19.4162 174.466C19.9796 173.85 20.4437 173.315 20.8082 172.861C21.1728 172.402 21.4427 171.971 21.6179 171.568C21.7978 171.161 21.8878 170.735 21.8878 170.29C21.8878 169.778 21.7647 169.336 21.5185 168.962C21.277 168.588 20.9455 168.299 20.5241 168.095C20.1027 167.892 19.6293 167.79 19.1037 167.79C18.545 167.79 18.0573 167.906 17.6406 168.138C17.2287 168.365 16.9091 168.685 16.6818 169.097C16.4593 169.509 16.348 169.991 16.348 170.545H14.6719C14.6719 169.693 14.8684 168.945 15.2614 168.301C15.6544 167.657 16.1894 167.155 16.8665 166.795C17.5483 166.436 18.313 166.256 19.1605 166.256C20.0128 166.256 20.768 166.436 21.4261 166.795C22.0843 167.155 22.6004 167.641 22.9744 168.251C23.3485 168.862 23.5355 169.542 23.5355 170.29C23.5355 170.825 23.4384 171.348 23.2443 171.859C23.0549 172.366 22.7235 172.932 22.25 173.557C21.7812 174.177 21.1302 174.935 20.2969 175.83L17.0298 179.324V179.438H23.7912V181H14.6151ZM27.179 181L33.6847 168.131V168.017H26.1847V166.455H35.5028V168.102L29.0256 181H27.179ZM48.8888 166.455V181H47.1275V168.301H47.0423L43.4911 170.659V168.869L47.1275 166.455H48.8888ZM53.0721 181V179.722L57.8732 174.466C58.4367 173.85 58.9007 173.315 59.2653 172.861C59.6299 172.402 59.8997 171.971 60.0749 171.568C60.2549 171.161 60.3448 170.735 60.3448 170.29C60.3448 169.778 60.2217 169.336 59.9755 168.962C59.734 168.588 59.4026 168.299 58.9812 168.095C58.5598 167.892 58.0863 167.79 57.5607 167.79C57.002 167.79 56.5143 167.906 56.0977 168.138C55.6857 168.365 55.3661 168.685 55.1388 169.097C54.9163 169.509 54.805 169.991 54.805 170.545H53.1289C53.1289 169.693 53.3254 168.945 53.7184 168.301C54.1114 167.657 54.6464 167.155 55.3235 166.795C56.0053 166.436 56.77 166.256 57.6175 166.256C58.4698 166.256 59.225 166.436 59.8832 166.795C60.5413 167.155 61.0574 167.641 61.4315 168.251C61.8055 168.862 61.9925 169.542 61.9925 170.29C61.9925 170.825 61.8955 171.348 61.7013 171.859C61.512 172.366 61.1805 172.932 60.707 173.557C60.2383 174.177 59.5872 174.935 58.7539 175.83L55.4869 179.324V179.438H62.2482V181H53.0721ZM69.8121 166.256C70.4087 166.26 71.0053 166.374 71.6019 166.597C72.1985 166.819 72.743 167.188 73.2354 167.705C73.7279 168.216 74.1232 168.914 74.4215 169.8C74.7198 170.685 74.869 171.795 74.869 173.131C74.869 174.423 74.7459 175.571 74.4996 176.575C74.2582 177.574 73.9078 178.417 73.4485 179.104C72.994 179.79 72.44 180.311 71.7866 180.666C71.1379 181.021 70.404 181.199 69.5849 181.199C68.7705 181.199 68.0437 181.038 67.4045 180.716C66.77 180.389 66.2492 179.937 65.842 179.359C65.4395 178.777 65.1815 178.102 65.0678 177.335H66.8008C66.957 178.003 67.2672 178.554 67.7312 178.99C68.1999 179.421 68.8178 179.636 69.5849 179.636C70.707 179.636 71.5924 179.146 72.2411 178.166C72.8945 177.186 73.2212 175.801 73.2212 174.011H73.1076C72.8424 174.409 72.5276 174.752 72.163 175.041C71.7984 175.33 71.3936 175.553 70.9485 175.709C70.5034 175.865 70.0299 175.943 69.5281 175.943C68.6947 175.943 67.93 175.737 67.234 175.325C66.5427 174.909 65.9888 174.338 65.5721 173.614C65.1602 172.884 64.9542 172.051 64.9542 171.114C64.9542 170.223 65.1531 169.409 65.5508 168.67C65.9532 167.927 66.5167 167.335 67.2411 166.895C67.9703 166.455 68.8273 166.241 69.8121 166.256ZM69.8121 167.818C69.2156 167.818 68.6781 167.967 68.1999 168.266C67.7264 168.559 67.35 168.957 67.0707 169.459C66.796 169.956 66.6587 170.508 66.6587 171.114C66.6587 171.72 66.7913 172.271 67.0565 172.768C67.3263 173.261 67.6933 173.654 68.1573 173.947C68.6261 174.236 69.1587 174.381 69.7553 174.381C70.2051 174.381 70.6242 174.293 71.0124 174.118C71.4007 173.938 71.7392 173.694 72.0281 173.386C72.3216 173.074 72.5513 172.721 72.717 172.328C72.8827 171.93 72.9656 171.516 72.9656 171.085C72.9656 170.517 72.8282 169.984 72.5536 169.487C72.2837 168.99 71.9097 168.588 71.4315 168.28C70.958 167.972 70.4182 167.818 69.8121 167.818ZM88.4006 166.455V181H86.6392V168.301H86.554L83.0028 170.659V168.869L86.6392 166.455H88.4006ZM93.0384 181L99.544 168.131V168.017H92.044V166.455H101.362V168.102L94.8849 181H93.0384ZM108.36 181.199C107.526 181.199 106.776 181.033 106.108 180.702C105.441 180.37 104.906 179.916 104.503 179.338C104.101 178.76 103.881 178.102 103.843 177.364H105.547C105.614 178.022 105.912 178.566 106.442 178.997C106.977 179.423 107.616 179.636 108.36 179.636C108.956 179.636 109.487 179.497 109.951 179.217C110.419 178.938 110.786 178.554 111.051 178.067C111.321 177.574 111.456 177.018 111.456 176.398C111.456 175.763 111.317 175.197 111.037 174.7C110.763 174.198 110.384 173.803 109.901 173.514C109.418 173.225 108.866 173.079 108.246 173.074C107.801 173.069 107.344 173.138 106.875 173.28C106.407 173.417 106.021 173.595 105.718 173.812L104.07 173.614L104.951 166.455H112.507V168.017H106.428L105.917 172.307H106.002C106.3 172.07 106.674 171.874 107.124 171.717C107.574 171.561 108.042 171.483 108.53 171.483C109.42 171.483 110.213 171.696 110.909 172.122C111.61 172.544 112.159 173.121 112.557 173.855C112.96 174.589 113.161 175.427 113.161 176.369C113.161 177.297 112.953 178.126 112.536 178.855C112.124 179.58 111.556 180.152 110.831 180.574C110.107 180.991 109.283 181.199 108.36 181.199ZM130.854 180.091L129.761 179.011L134.263 174.509H122.602V172.946H134.263L129.761 168.457L130.854 167.364L137.218 173.727L130.854 180.091ZM152.769 169.18C153.909 169.3 154.989 169.36 156.169 169.36C158.569 169.36 161.029 169.18 163.049 168.76V170.3C160.929 170.66 158.489 170.82 156.149 170.82C154.989 170.82 153.949 170.78 152.789 170.7L152.769 169.18ZM159.769 165.6C159.709 166 159.669 166.42 159.649 166.8C159.609 167.54 159.589 168.96 159.589 170.14C159.589 173.22 159.889 176.34 159.889 178.4C159.889 180.04 159.129 181.64 156.429 181.64C153.749 181.64 152.289 180.56 152.289 178.76C152.289 177.08 153.769 175.76 156.409 175.76C159.769 175.76 162.109 177.46 163.789 178.98L162.929 180.3C160.829 178.34 158.809 176.98 156.269 176.98C154.769 176.98 153.729 177.64 153.729 178.6C153.729 179.64 154.709 180.18 156.169 180.18C157.849 180.18 158.329 179.34 158.329 178C158.329 176.56 158.069 172.82 158.069 170.18C158.069 168.8 158.049 167.54 158.049 166.84C158.049 166.48 158.029 165.96 157.969 165.6H159.769ZM149.909 165.74C149.789 166.06 149.629 166.72 149.549 167.08C149.149 168.94 148.549 172.9 148.549 175.14C148.549 176.12 148.609 176.96 148.749 177.94C149.069 177.02 149.569 175.8 149.909 174.98L150.729 175.62C150.229 177.02 149.489 179.06 149.289 180.04C149.229 180.32 149.189 180.72 149.209 180.94C149.229 181.14 149.249 181.44 149.269 181.64L147.849 181.76C147.469 180.32 147.089 178.12 147.089 175.42C147.089 172.48 147.769 168.66 148.009 167.02C148.089 166.54 148.129 166.02 148.149 165.58L149.909 165.74Z" fill="black"/>
<path d="M3.50568 149V147.722L8.30682 142.466C8.87027 141.85 9.33428 141.315 9.69886 140.861C10.0634 140.402 10.3333 139.971 10.5085 139.568C10.6884 139.161 10.7784 138.735 10.7784 138.29C10.7784 137.778 10.6553 137.336 10.4091 136.962C10.1676 136.588 9.83617 136.299 9.41477 136.095C8.99337 135.892 8.51989 135.79 7.99432 135.79C7.43561 135.79 6.94792 135.906 6.53125 136.138C6.11932 136.365 5.79972 136.685 5.57244 137.097C5.34991 137.509 5.23864 137.991 5.23864 138.545H3.5625C3.5625 137.693 3.759 136.945 4.15199 136.301C4.54498 135.657 5.08002 135.155 5.7571 134.795C6.43892 134.436 7.2036 134.256 8.05114 134.256C8.90341 134.256 9.65862 134.436 10.3168 134.795C10.9749 135.155 11.491 135.641 11.8651 136.251C12.2391 136.862 12.4261 137.542 12.4261 138.29C12.4261 138.825 12.3291 139.348 12.1349 139.859C11.9455 140.366 11.6141 140.932 11.1406 141.557C10.6719 142.177 10.0208 142.935 9.1875 143.83L5.92045 147.324V147.438H12.6818V149H3.50568ZM15.6151 149V147.722L20.4162 142.466C20.9796 141.85 21.4437 141.315 21.8082 140.861C22.1728 140.402 22.4427 139.971 22.6179 139.568C22.7978 139.161 22.8878 138.735 22.8878 138.29C22.8878 137.778 22.7647 137.336 22.5185 136.962C22.277 136.588 21.9455 136.299 21.5241 136.095C21.1027 135.892 20.6293 135.79 20.1037 135.79C19.545 135.79 19.0573 135.906 18.6406 136.138C18.2287 136.365 17.9091 136.685 17.6818 137.097C17.4593 137.509 17.348 137.991 17.348 138.545H15.6719C15.6719 137.693 15.8684 136.945 16.2614 136.301C16.6544 135.657 17.1894 135.155 17.8665 134.795C18.5483 134.436 19.313 134.256 20.1605 134.256C21.0128 134.256 21.768 134.436 22.4261 134.795C23.0843 135.155 23.6004 135.641 23.9744 136.251C24.3485 136.862 24.5355 137.542 24.5355 138.29C24.5355 138.825 24.4384 139.348 24.2443 139.859C24.0549 140.366 23.7235 140.932 23.25 141.557C22.7812 142.177 22.1302 142.935 21.2969 143.83L18.0298 147.324V147.438H24.7912V149H15.6151ZM28.179 149L34.6847 136.131V136.017H27.1847V134.455H36.5028V136.102L30.0256 149H28.179ZM49.8888 134.455V149H48.1275V136.301H48.0423L44.4911 138.659V136.869L48.1275 134.455H49.8888ZM54.0721 149V147.722L58.8732 142.466C59.4367 141.85 59.9007 141.315 60.2653 140.861C60.6299 140.402 60.8997 139.971 61.0749 139.568C61.2549 139.161 61.3448 138.735 61.3448 138.29C61.3448 137.778 61.2217 137.336 60.9755 136.962C60.734 136.588 60.4026 136.299 59.9812 136.095C59.5598 135.892 59.0863 135.79 58.5607 135.79C58.002 135.79 57.5143 135.906 57.0977 136.138C56.6857 136.365 56.3661 136.685 56.1388 137.097C55.9163 137.509 55.805 137.991 55.805 138.545H54.1289C54.1289 137.693 54.3254 136.945 54.7184 136.301C55.1114 135.657 55.6464 135.155 56.3235 134.795C57.0053 134.436 57.77 134.256 58.6175 134.256C59.4698 134.256 60.225 134.436 60.8832 134.795C61.5413 135.155 62.0574 135.641 62.4315 136.251C62.8055 136.862 62.9925 137.542 62.9925 138.29C62.9925 138.825 62.8955 139.348 62.7013 139.859C62.512 140.366 62.1805 140.932 61.707 141.557C61.2383 142.177 60.5872 142.935 59.7539 143.83L56.4869 147.324V147.438H63.2482V149H54.0721ZM70.8121 134.256C71.4087 134.26 72.0053 134.374 72.6019 134.597C73.1985 134.819 73.743 135.188 74.2354 135.705C74.7279 136.216 75.1232 136.914 75.4215 137.8C75.7198 138.685 75.869 139.795 75.869 141.131C75.869 142.423 75.7459 143.571 75.4996 144.575C75.2582 145.574 74.9078 146.417 74.4485 147.104C73.994 147.79 73.44 148.311 72.7866 148.666C72.1379 149.021 71.404 149.199 70.5849 149.199C69.7705 149.199 69.0437 149.038 68.4045 148.716C67.77 148.389 67.2492 147.937 66.842 147.359C66.4395 146.777 66.1815 146.102 66.0678 145.335H67.8008C67.957 146.003 68.2672 146.554 68.7312 146.99C69.1999 147.421 69.8178 147.636 70.5849 147.636C71.707 147.636 72.5924 147.146 73.2411 146.166C73.8945 145.186 74.2212 143.801 74.2212 142.011H74.1076C73.8424 142.409 73.5276 142.752 73.163 143.041C72.7984 143.33 72.3936 143.553 71.9485 143.709C71.5034 143.865 71.0299 143.943 70.5281 143.943C69.6947 143.943 68.93 143.737 68.234 143.325C67.5427 142.909 66.9888 142.338 66.5721 141.614C66.1602 140.884 65.9542 140.051 65.9542 139.114C65.9542 138.223 66.1531 137.409 66.5508 136.67C66.9532 135.927 67.5167 135.335 68.2411 134.895C68.9703 134.455 69.8273 134.241 70.8121 134.256ZM70.8121 135.818C70.2156 135.818 69.6781 135.967 69.1999 136.266C68.7264 136.559 68.35 136.957 68.0707 137.459C67.796 137.956 67.6587 138.508 67.6587 139.114C67.6587 139.72 67.7913 140.271 68.0565 140.768C68.3263 141.261 68.6933 141.654 69.1573 141.947C69.6261 142.236 70.1587 142.381 70.7553 142.381C71.2051 142.381 71.6242 142.293 72.0124 142.118C72.4007 141.938 72.7392 141.694 73.0281 141.386C73.3216 141.074 73.5513 140.721 73.717 140.328C73.8827 139.93 73.9656 139.516 73.9656 139.085C73.9656 138.517 73.8282 137.984 73.5536 137.487C73.2837 136.99 72.9097 136.588 72.4315 136.28C71.958 135.972 71.4182 135.818 70.8121 135.818ZM89.4006 134.455V149H87.6392V136.301H87.554L84.0028 138.659V136.869L87.6392 134.455H89.4006ZM98.4134 149.199C97.8168 149.189 97.2202 149.076 96.6236 148.858C96.027 148.64 95.4825 148.273 94.9901 147.757C94.4976 147.236 94.1023 146.533 93.804 145.648C93.5057 144.758 93.3565 143.64 93.3565 142.295C93.3565 141.008 93.4773 139.866 93.7188 138.872C93.9602 137.873 94.3106 137.033 94.7699 136.351C95.2292 135.664 95.7831 135.143 96.4318 134.788C97.0852 134.433 97.8215 134.256 98.6406 134.256C99.455 134.256 100.179 134.419 100.814 134.746C101.453 135.068 101.974 135.518 102.376 136.095C102.779 136.673 103.039 137.338 103.158 138.091H101.425C101.264 137.437 100.951 136.895 100.487 136.464C100.023 136.034 99.4077 135.818 98.6406 135.818C97.5137 135.818 96.6259 136.308 95.9773 137.288C95.3333 138.268 95.009 139.644 95.0043 141.415H95.1179C95.383 141.012 95.6979 140.669 96.0625 140.385C96.4318 140.096 96.839 139.874 97.2841 139.717C97.7292 139.561 98.2003 139.483 98.6974 139.483C99.5308 139.483 100.293 139.691 100.984 140.108C101.676 140.52 102.23 141.09 102.646 141.82C103.063 142.544 103.271 143.375 103.271 144.312C103.271 145.212 103.07 146.036 102.668 146.784C102.265 147.527 101.699 148.119 100.97 148.56C100.246 148.995 99.3935 149.208 98.4134 149.199ZM98.4134 147.636C99.0099 147.636 99.545 147.487 100.018 147.189C100.497 146.891 100.873 146.491 101.148 145.989C101.427 145.487 101.567 144.928 101.567 144.312C101.567 143.711 101.432 143.164 101.162 142.672C100.897 142.175 100.53 141.779 100.061 141.486C99.5971 141.192 99.0668 141.045 98.4702 141.045C98.0204 141.045 97.6013 141.135 97.2131 141.315C96.8248 141.491 96.4839 141.732 96.1903 142.04C95.9015 142.348 95.6742 142.7 95.5085 143.098C95.3428 143.491 95.2599 143.905 95.2599 144.341C95.2599 144.919 95.3949 145.458 95.6648 145.96C95.9394 146.462 96.3134 146.867 96.7869 147.175C97.2652 147.482 97.8073 147.636 98.4134 147.636ZM111.178 134.455V149H109.417V136.301H109.331L105.78 138.659V136.869L109.417 134.455H111.178ZM130.233 148.091L129.14 147.011L133.642 142.509H121.98V140.946H133.642L129.14 136.457L130.233 135.364L136.597 141.727L130.233 148.091ZM152.648 133.34C152.488 133.88 152.388 134.5 152.268 135.02C151.988 136.62 151.188 140.48 150.508 142.34C152.248 141.12 154.048 140.62 156.128 140.62C159.308 140.62 161.168 142.24 161.168 144.58C161.168 148.76 156.908 150.3 150.828 149.66L150.408 148.06C155.048 148.7 159.528 147.92 159.528 144.62C159.528 143.14 158.308 141.98 155.968 141.98C153.588 141.98 151.368 142.8 150.048 144.38C149.808 144.68 149.628 144.96 149.428 145.3L147.948 144.78C149.467 141.8 150.528 136.84 150.768 134.92C150.848 134.28 150.888 133.8 150.848 133.26L152.648 133.34ZM146.428 135.9C147.488 136.08 149.008 136.22 150.208 136.22C152.768 136.22 156.708 135.92 159.848 135.22L159.888 136.76C157.048 137.26 152.968 137.66 150.228 137.66C148.868 137.66 147.588 137.56 146.448 137.46L146.428 135.9Z" fill="black"/>
<path d="M4.50568 117V115.722L9.30682 110.466C9.87027 109.85 10.3343 109.315 10.6989 108.861C11.0634 108.402 11.3333 107.971 11.5085 107.568C11.6884 107.161 11.7784 106.735 11.7784 106.29C11.7784 105.778 11.6553 105.336 11.4091 104.962C11.1676 104.588 10.8362 104.299 10.4148 104.095C9.99337 103.892 9.51989 103.79 8.99432 103.79C8.43561 103.79 7.94792 103.906 7.53125 104.138C7.11932 104.365 6.79972 104.685 6.57244 105.097C6.34991 105.509 6.23864 105.991 6.23864 106.545H4.5625C4.5625 105.693 4.759 104.945 5.15199 104.301C5.54498 103.657 6.08002 103.155 6.7571 102.795C7.43892 102.436 8.2036 102.256 9.05114 102.256C9.90341 102.256 10.6586 102.436 11.3168 102.795C11.9749 103.155 12.491 103.641 12.8651 104.251C13.2391 104.862 13.4261 105.542 13.4261 106.29C13.4261 106.825 13.3291 107.348 13.1349 107.859C12.9455 108.366 12.6141 108.932 12.1406 109.557C11.6719 110.177 11.0208 110.935 10.1875 111.83L6.92045 115.324V115.438H13.6818V117H4.50568ZM16.6151 117V115.722L21.4162 110.466C21.9796 109.85 22.4437 109.315 22.8082 108.861C23.1728 108.402 23.4427 107.971 23.6179 107.568C23.7978 107.161 23.8878 106.735 23.8878 106.29C23.8878 105.778 23.7647 105.336 23.5185 104.962C23.277 104.588 22.9455 104.299 22.5241 104.095C22.1027 103.892 21.6293 103.79 21.1037 103.79C20.545 103.79 20.0573 103.906 19.6406 104.138C19.2287 104.365 18.9091 104.685 18.6818 105.097C18.4593 105.509 18.348 105.991 18.348 106.545H16.6719C16.6719 105.693 16.8684 104.945 17.2614 104.301C17.6544 103.657 18.1894 103.155 18.8665 102.795C19.5483 102.436 20.313 102.256 21.1605 102.256C22.0128 102.256 22.768 102.436 23.4261 102.795C24.0843 103.155 24.6004 103.641 24.9744 104.251C25.3485 104.862 25.5355 105.542 25.5355 106.29C25.5355 106.825 25.4384 107.348 25.2443 107.859C25.0549 108.366 24.7235 108.932 24.25 109.557C23.7812 110.177 23.1302 110.935 22.2969 111.83L19.0298 115.324V115.438H25.7912V117H16.6151ZM29.179 117L35.6847 104.131V104.017H28.1847V102.455H37.5028V104.102L31.0256 117H29.179ZM50.8888 102.455V117H49.1275V104.301H49.0423L45.4911 106.659V104.869L49.1275 102.455H50.8888ZM55.0721 117V115.722L59.8732 110.466C60.4367 109.85 60.9007 109.315 61.2653 108.861C61.6299 108.402 61.8997 107.971 62.0749 107.568C62.2549 107.161 62.3448 106.735 62.3448 106.29C62.3448 105.778 62.2217 105.336 61.9755 104.962C61.734 104.588 61.4026 104.299 60.9812 104.095C60.5598 103.892 60.0863 103.79 59.5607 103.79C59.002 103.79 58.5143 103.906 58.0977 104.138C57.6857 104.365 57.3661 104.685 57.1388 105.097C56.9163 105.509 56.805 105.991 56.805 106.545H55.1289C55.1289 105.693 55.3254 104.945 55.7184 104.301C56.1114 103.657 56.6464 103.155 57.3235 102.795C58.0053 102.436 58.77 102.256 59.6175 102.256C60.4698 102.256 61.225 102.436 61.8832 102.795C62.5413 103.155 63.0574 103.641 63.4315 104.251C63.8055 104.862 63.9925 105.542 63.9925 106.29C63.9925 106.825 63.8955 107.348 63.7013 107.859C63.512 108.366 63.1805 108.932 62.707 109.557C62.2383 110.177 61.5872 110.935 60.7539 111.83L57.4869 115.324V115.438H64.2482V117H55.0721ZM71.8121 102.256C72.4087 102.26 73.0053 102.374 73.6019 102.597C74.1985 102.819 74.743 103.188 75.2354 103.705C75.7279 104.216 76.1232 104.914 76.4215 105.8C76.7198 106.685 76.869 107.795 76.869 109.131C76.869 110.423 76.7459 111.571 76.4996 112.575C76.2582 113.574 75.9078 114.417 75.4485 115.104C74.994 115.79 74.44 116.311 73.7866 116.666C73.1379 117.021 72.404 117.199 71.5849 117.199C70.7705 117.199 70.0437 117.038 69.4045 116.716C68.77 116.389 68.2492 115.937 67.842 115.359C67.4395 114.777 67.1815 114.102 67.0678 113.335H68.8008C68.957 114.003 69.2672 114.554 69.7312 114.99C70.1999 115.421 70.8178 115.636 71.5849 115.636C72.707 115.636 73.5924 115.146 74.2411 114.166C74.8945 113.186 75.2212 111.801 75.2212 110.011H75.1076C74.8424 110.409 74.5276 110.752 74.163 111.041C73.7984 111.33 73.3936 111.553 72.9485 111.709C72.5034 111.865 72.0299 111.943 71.5281 111.943C70.6947 111.943 69.93 111.737 69.234 111.325C68.5427 110.909 67.9888 110.338 67.5721 109.614C67.1602 108.884 66.9542 108.051 66.9542 107.114C66.9542 106.223 67.1531 105.409 67.5508 104.67C67.9532 103.927 68.5167 103.335 69.2411 102.895C69.9703 102.455 70.8273 102.241 71.8121 102.256ZM71.8121 103.818C71.2156 103.818 70.6781 103.967 70.1999 104.266C69.7264 104.559 69.35 104.957 69.0707 105.459C68.796 105.956 68.6587 106.508 68.6587 107.114C68.6587 107.72 68.7913 108.271 69.0565 108.768C69.3263 109.261 69.6933 109.654 70.1573 109.947C70.6261 110.236 71.1587 110.381 71.7553 110.381C72.2051 110.381 72.6242 110.293 73.0124 110.118C73.4007 109.938 73.7392 109.694 74.0281 109.386C74.3216 109.074 74.5513 108.721 74.717 108.328C74.8827 107.93 74.9656 107.516 74.9656 107.085C74.9656 106.517 74.8282 105.984 74.5536 105.487C74.2837 104.99 73.9097 104.588 73.4315 104.28C72.958 103.972 72.4182 103.818 71.8121 103.818ZM90.4006 102.455V117H88.6392V104.301H88.554L85.0028 106.659V104.869L88.6392 102.455H90.4006ZM95.0384 117L101.544 104.131V104.017H94.044V102.455H103.362V104.102L96.8849 117H95.0384ZM111.123 102.455V117H109.362V104.301H109.277L105.725 106.659V104.869L109.362 102.455H111.123ZM130.179 116.091L129.085 115.011L133.588 110.509H121.926V108.946H133.588L129.085 104.457L130.179 103.364L136.542 109.727L130.179 116.091ZM153.233 103.5C155.413 103.88 159.473 103.8 161.453 103.5V105.12C159.313 105.36 155.433 105.36 153.253 105.12L153.233 103.5ZM154.013 111.66C153.833 112.38 153.733 112.94 153.733 113.48C153.733 114.4 154.373 115.3 157.113 115.3C158.893 115.3 160.453 115.14 162.053 114.76L162.093 116.44C160.853 116.7 159.173 116.86 157.093 116.86C153.753 116.86 152.253 115.74 152.253 113.86C152.253 113.2 152.353 112.48 152.573 111.52L154.013 111.66ZM149.433 101.96C149.313 102.3 149.153 102.94 149.073 103.3C148.693 105.16 148.073 108.72 148.073 110.98C148.073 111.94 148.133 112.78 148.253 113.76C148.593 112.86 149.053 111.66 149.393 110.84L150.233 111.5C149.733 112.92 148.993 115.02 148.813 115.98C148.753 116.26 148.713 116.64 148.713 116.88C148.733 117.08 148.753 117.36 148.773 117.58L147.353 117.68C146.953 116.26 146.613 113.96 146.613 111.24C146.613 108.3 147.273 104.88 147.513 103.22C147.573 102.76 147.633 102.26 147.653 101.82L149.433 101.96Z" fill="black"/>
<path d="M1.50568 85V83.7216L6.30682 78.4659C6.87027 77.8504 7.33428 77.3153 7.69886 76.8608C8.06345 76.4015 8.33333 75.9706 8.50852 75.5682C8.68845 75.161 8.77841 74.7348 8.77841 74.2898C8.77841 73.7784 8.6553 73.3357 8.40909 72.9616C8.16761 72.5876 7.83617 72.2988 7.41477 72.0952C6.99337 71.8916 6.51989 71.7898 5.99432 71.7898C5.43561 71.7898 4.94792 71.9058 4.53125 72.1378C4.11932 72.3651 3.79972 72.6847 3.57244 73.0966C3.34991 73.5085 3.23864 73.9915 3.23864 74.5455H1.5625C1.5625 73.6932 1.759 72.9451 2.15199 72.3011C2.54498 71.6572 3.08002 71.1553 3.7571 70.7955C4.43892 70.4356 5.2036 70.2557 6.05114 70.2557C6.90341 70.2557 7.65862 70.4356 8.31676 70.7955C8.97491 71.1553 9.491 71.6406 9.86506 72.2514C10.2391 72.8622 10.4261 73.5417 10.4261 74.2898C10.4261 74.8248 10.3291 75.348 10.1349 75.8594C9.94555 76.366 9.61411 76.9318 9.14062 77.5568C8.67188 78.1771 8.02083 78.9347 7.1875 79.8295L3.92045 83.3239V83.4375H10.6818V85H1.50568ZM13.6151 85V83.7216L18.4162 78.4659C18.9796 77.8504 19.4437 77.3153 19.8082 76.8608C20.1728 76.4015 20.4427 75.9706 20.6179 75.5682C20.7978 75.161 20.8878 74.7348 20.8878 74.2898C20.8878 73.7784 20.7647 73.3357 20.5185 72.9616C20.277 72.5876 19.9455 72.2988 19.5241 72.0952C19.1027 71.8916 18.6293 71.7898 18.1037 71.7898C17.545 71.7898 17.0573 71.9058 16.6406 72.1378C16.2287 72.3651 15.9091 72.6847 15.6818 73.0966C15.4593 73.5085 15.348 73.9915 15.348 74.5455H13.6719C13.6719 73.6932 13.8684 72.9451 14.2614 72.3011C14.6544 71.6572 15.1894 71.1553 15.8665 70.7955C16.5483 70.4356 17.313 70.2557 18.1605 70.2557C19.0128 70.2557 19.768 70.4356 20.4261 70.7955C21.0843 71.1553 21.6004 71.6406 21.9744 72.2514C22.3485 72.8622 22.5355 73.5417 22.5355 74.2898C22.5355 74.8248 22.4384 75.348 22.2443 75.8594C22.0549 76.366 21.7235 76.9318 21.25 77.5568C20.7812 78.1771 20.1302 78.9347 19.2969 79.8295L16.0298 83.3239V83.4375H22.7912V85H13.6151ZM26.179 85L32.6847 72.1307V72.017H25.1847V70.4545H34.5028V72.1023L28.0256 85H26.179ZM47.8888 70.4545V85H46.1275V72.3011H46.0423L42.4911 74.6591V72.8693L46.1275 70.4545H47.8888ZM56.9869 85.1989C56.0494 85.1989 55.2137 85.0379 54.4798 84.7159C53.7506 84.3939 53.1706 83.9465 52.7397 83.3736C52.3136 82.7959 52.0816 82.1259 52.0437 81.3636H53.8335C53.8713 81.8324 54.0323 82.2372 54.3164 82.5781C54.6005 82.9143 54.9722 83.1747 55.4315 83.3594C55.8907 83.544 56.3997 83.6364 56.9585 83.6364C57.5835 83.6364 58.1374 83.5275 58.6204 83.3097C59.1033 83.0919 59.4821 82.7888 59.7567 82.4006C60.0314 82.0123 60.1687 81.5625 60.1687 81.0511C60.1687 80.5161 60.0361 80.045 59.771 79.6378C59.5058 79.2259 59.1175 78.9039 58.6062 78.6719C58.0948 78.4399 57.4698 78.3239 56.7312 78.3239H55.5664V76.7614H56.7312C57.3088 76.7614 57.8155 76.6572 58.2511 76.4489C58.6914 76.2405 59.0347 75.947 59.2809 75.5682C59.5318 75.1894 59.6573 74.7443 59.6573 74.233C59.6573 73.7405 59.5484 73.312 59.3306 72.9474C59.1128 72.5829 58.805 72.2988 58.4073 72.0952C58.0143 71.8916 57.5503 71.7898 57.0153 71.7898C56.5134 71.7898 56.0399 71.8821 55.5948 72.0668C55.1545 72.2467 54.7946 72.5095 54.5153 72.8551C54.2359 73.196 54.0844 73.608 54.0607 74.0909H52.3562C52.3846 73.3286 52.6142 72.661 53.0451 72.0881C53.476 71.5104 54.0394 71.0606 54.7354 70.7386C55.4362 70.4167 56.2056 70.2557 57.0437 70.2557C57.9433 70.2557 58.7151 70.438 59.359 70.8026C60.003 71.1624 60.4978 71.6383 60.8434 72.2301C61.189 72.822 61.3619 73.4612 61.3619 74.1477C61.3619 74.9669 61.1464 75.6652 60.7156 76.2429C60.2894 76.8205 59.7094 77.2206 58.9755 77.4432V77.5568C59.8941 77.7083 60.6114 78.099 61.1275 78.7287C61.6436 79.3537 61.9016 80.1278 61.9016 81.0511C61.9016 81.8419 61.6862 82.5521 61.2553 83.1818C60.8292 83.8068 60.2468 84.2992 59.5082 84.6591C58.7695 85.0189 57.9291 85.1989 56.9869 85.1989ZM69.5508 85.1989C68.4807 85.1989 67.5692 84.9077 66.8164 84.3253C66.0636 83.7382 65.4883 82.8883 65.0906 81.7756C64.6928 80.6581 64.494 79.3087 64.494 77.7273C64.494 76.1553 64.6928 74.813 65.0906 73.7003C65.493 72.5829 66.0707 71.7306 66.8235 71.1435C67.5811 70.5516 68.4902 70.2557 69.5508 70.2557C70.6114 70.2557 71.5181 70.5516 72.271 71.1435C73.0285 71.7306 73.6062 72.5829 74.0039 73.7003C74.4064 74.813 74.6076 76.1553 74.6076 77.7273C74.6076 79.3087 74.4087 80.6581 74.011 81.7756C73.6133 82.8883 73.038 83.7382 72.2852 84.3253C71.5323 84.9077 70.6209 85.1989 69.5508 85.1989ZM69.5508 83.6364C70.6114 83.6364 71.4353 83.125 72.0224 82.1023C72.6095 81.0795 72.9031 79.6212 72.9031 77.7273C72.9031 76.4678 72.7681 75.3954 72.4982 74.5099C72.2331 73.6245 71.8496 72.9498 71.3477 72.4858C70.8505 72.0218 70.2515 71.7898 69.5508 71.7898C68.4996 71.7898 67.6781 72.3082 67.0863 73.3452C66.4944 74.3774 66.1985 75.8381 66.1985 77.7273C66.1985 78.9867 66.3311 80.0568 66.5962 80.9375C66.8614 81.8182 67.2425 82.4882 67.7397 82.9474C68.2416 83.4067 68.8453 83.6364 69.5508 83.6364ZM88.0451 70.4545V85H86.2837V72.3011H86.1985L82.6474 74.6591V72.8693L86.2837 70.4545H88.0451ZM91.8874 82.017V80.5682L98.2795 70.4545H99.3306V72.6989H98.6204L93.7908 80.3409V80.4545H102.399V82.017H91.8874ZM98.734 85V81.5767V80.902V70.4545H100.41V85H98.734ZM105.515 85L112.021 72.1307V72.017H104.521V70.4545H113.839V72.1023L107.362 85H105.515ZM131.358 84.0909L130.265 83.0114L134.767 78.5085H123.105V76.946H134.767L130.265 72.4574L131.358 71.3636L137.722 77.7273L131.358 84.0909ZM156.253 70.16C156.073 70.4 155.833 70.76 155.613 71.14C154.713 72.52 152.873 75.84 151.853 77.78C152.813 76.92 153.853 76.54 154.813 76.54C156.153 76.54 157.113 77.4 157.173 78.98C157.213 80.16 157.173 81.68 157.253 82.66C157.313 83.66 157.993 84.1 158.853 84.1C161.093 84.1 162.413 81.34 162.913 79.2L164.253 80.28C163.193 83.5 161.513 85.74 158.613 85.74C156.473 85.74 155.773 84.4 155.713 83.22C155.653 82.04 155.673 80.5 155.613 79.4C155.573 78.54 155.053 78 154.153 78C152.553 78 151.033 79.64 150.273 81.22C149.653 82.4 148.813 84.78 148.533 85.76L146.813 85.16C148.273 81.12 152.653 72.92 153.753 71C153.973 70.52 154.233 70.04 154.473 69.44L156.253 70.16Z" fill="black"/>
</svg>
