<svg width="115" height="149" viewBox="0 0 115 149" fill="none" xmlns="http://www.w3.org/2000/svg">
<path d="M44.42 2.18L45.9 2.52C45.08 4.8 43.78 7 42.44 8.44C42.16 8.2 41.52 7.76 41.14 7.58C42.54 6.26 43.72 4.22 44.42 2.18ZM44.3 4.22H53.96V5.48H43.64L44.3 4.22ZM44.92 10.2V11.58H51.24V10.2H44.92ZM44.92 7.86V9.22H51.24V7.86H44.92ZM43.56 6.82H52.64V12.64H43.56V6.82ZM45.86 12.26L47.18 12.64C46.08 14.64 44.16 16.4 42.32 17.52C42.1 17.26 41.58 16.78 41.28 16.56C43.12 15.58 44.9 14.02 45.86 12.26ZM45.36 14.72C46.88 17.1 50.3 18.8 54.42 19.32C54.1 19.62 53.72 20.22 53.52 20.58C49.28 19.92 45.92 17.96 44.16 15.1L45.36 14.72ZM45.42 13.98H51.6V15.08H44.5L45.42 13.98ZM51.2 13.98H51.5L51.76 13.92L52.68 14.4C50.82 18.16 46.38 19.9 41.8 20.64C41.68 20.28 41.38 19.72 41.12 19.38C45.42 18.84 49.66 17.28 51.2 14.2V13.98ZM40.34 6.28L41.7 6.78C40.32 9.18 38.22 11.6 36.26 13.2C36.12 12.88 35.68 12.18 35.4 11.86C37.26 10.5 39.16 8.4 40.34 6.28ZM39.88 2.22L41.22 2.74C40.06 4.42 38.18 6.3 36.48 7.5C36.28 7.2 35.9 6.68 35.64 6.4C37.2 5.34 39 3.64 39.88 2.22ZM38.54 10L39.76 8.78L39.96 8.88V20.68H38.54V10ZM60.2 4.36V7.58H69.94V4.36H60.2ZM58.74 3.04H71.48V8.92H58.74V3.04ZM55.96 10.46H73.98V11.86H55.96V10.46ZM60.24 13.62H70.44V15.02H60.24V13.62ZM69.9 13.62H71.5C71.5 13.62 71.46 14.1 71.42 14.32C70.9 17.84 70.42 19.4 69.66 20.06C69.18 20.48 68.7 20.58 67.92 20.62C67.24 20.66 65.92 20.62 64.52 20.54C64.48 20.12 64.28 19.52 64 19.12C65.42 19.24 66.88 19.26 67.42 19.26C67.9 19.26 68.16 19.24 68.4 19.08C69 18.6 69.46 17.12 69.88 13.84L69.9 13.62ZM60.62 10.84L62.2 11.08C61.66 12.84 60.92 15.02 60.34 16.4L58.74 16.12C59.34 14.74 60.12 12.52 60.62 10.84Z" fill="black"/>
<path d="M6.61932 38.4545V53H4.85795V40.3011H4.77273L1.22159 42.6591V40.8693L4.85795 38.4545H6.61932ZM15.4616 53.1989C14.4863 53.1989 13.6245 53.026 12.8764 52.6804C12.133 52.33 11.553 51.8494 11.1364 51.2386C10.7197 50.6231 10.5137 49.9223 10.5185 49.1364C10.5137 48.5208 10.6345 47.9527 10.8807 47.4318C11.1269 46.9062 11.4631 46.4683 11.8892 46.1179C12.3201 45.7628 12.8007 45.5379 13.331 45.4432V45.358C12.6349 45.178 12.081 44.7874 11.669 44.1861C11.2571 43.58 11.0535 42.8911 11.0582 42.1193C11.0535 41.3807 11.2405 40.7202 11.6193 40.1378C11.9981 39.5554 12.5189 39.0961 13.1818 38.7599C13.8494 38.4238 14.6094 38.2557 15.4616 38.2557C16.3045 38.2557 17.0573 38.4238 17.7202 38.7599C18.383 39.0961 18.9039 39.5554 19.2827 40.1378C19.6662 40.7202 19.8603 41.3807 19.8651 42.1193C19.8603 42.8911 19.6496 43.58 19.233 44.1861C18.821 44.7874 18.2741 45.178 17.5923 45.358V45.4432C18.1179 45.5379 18.5914 45.7628 19.0128 46.1179C19.4342 46.4683 19.7704 46.9062 20.0213 47.4318C20.2723 47.9527 20.4001 48.5208 20.4048 49.1364C20.4001 49.9223 20.187 50.6231 19.7656 51.2386C19.349 51.8494 18.7689 52.33 18.0256 52.6804C17.2869 53.026 16.4323 53.1989 15.4616 53.1989ZM15.4616 51.6364C16.1198 51.6364 16.688 51.5298 17.1662 51.3168C17.6444 51.1037 18.0137 50.803 18.2741 50.4148C18.5346 50.0265 18.6671 49.572 18.6719 49.0511C18.6671 48.5019 18.5251 48.0166 18.2457 47.5952C17.9664 47.1738 17.5852 46.8423 17.1023 46.6009C16.6241 46.3594 16.0772 46.2386 15.4616 46.2386C14.8414 46.2386 14.2874 46.3594 13.7997 46.6009C13.3168 46.8423 12.9356 47.1738 12.6562 47.5952C12.3816 48.0166 12.2467 48.5019 12.2514 49.0511C12.2467 49.572 12.3722 50.0265 12.6278 50.4148C12.8883 50.803 13.2599 51.1037 13.7429 51.3168C14.2259 51.5298 14.7988 51.6364 15.4616 51.6364ZM15.4616 44.733C15.9825 44.733 16.4441 44.6288 16.8466 44.4205C17.2538 44.2121 17.5734 43.9209 17.8054 43.5469C18.0374 43.1728 18.1558 42.7348 18.1605 42.233C18.1558 41.7405 18.0398 41.312 17.8125 40.9474C17.5852 40.5781 17.2704 40.294 16.8679 40.0952C16.4654 39.8916 15.9967 39.7898 15.4616 39.7898C14.9171 39.7898 14.4413 39.8916 14.0341 40.0952C13.6269 40.294 13.312 40.5781 13.0895 40.9474C12.867 41.312 12.758 41.7405 12.7628 42.233C12.758 42.7348 12.8693 43.1728 13.0966 43.5469C13.3286 43.9209 13.6482 44.2121 14.0554 44.4205C14.4626 44.6288 14.9313 44.733 15.4616 44.733ZM23.1268 53V51.7216L27.9279 46.4659C28.4914 45.8504 28.9554 45.3153 29.32 44.8608C29.6845 44.4015 29.9544 43.9706 30.1296 43.5682C30.3095 43.161 30.3995 42.7348 30.3995 42.2898C30.3995 41.7784 30.2764 41.3357 30.0302 40.9616C29.7887 40.5876 29.4573 40.2988 29.0359 40.0952C28.6145 39.8916 28.141 39.7898 27.6154 39.7898C27.0567 39.7898 26.569 39.9058 26.1523 40.1378C25.7404 40.3651 25.4208 40.6847 25.1935 41.0966C24.971 41.5085 24.8597 41.9915 24.8597 42.5455H23.1836C23.1836 41.6932 23.3801 40.9451 23.7731 40.3011C24.1661 39.6572 24.7011 39.1553 25.3782 38.7955C26.06 38.4356 26.8247 38.2557 27.6722 38.2557C28.5245 38.2557 29.2797 38.4356 29.9379 38.7955C30.596 39.1553 31.1121 39.6406 31.4862 40.2514C31.8602 40.8622 32.0472 41.5417 32.0472 42.2898C32.0472 42.8248 31.9502 43.348 31.756 43.8594C31.5666 44.366 31.2352 44.9318 30.7617 45.5568C30.293 46.1771 29.6419 46.9347 28.8086 47.8295L25.5415 51.3239V51.4375H32.3029V53H23.1268ZM40.3498 38.4545V53H38.5884V40.3011H38.5032L34.9521 42.6591V40.8693L38.5884 38.4545H40.3498ZM59.4052 52.0909L58.3114 51.0114L62.8143 46.5085H51.1523V44.946H62.8143L58.3114 40.4574L59.4052 39.3636L65.7688 45.7273L59.4052 52.0909ZM74.8651 53V51.7216L79.6662 46.4659C80.2296 45.8504 80.6937 45.3153 81.0582 44.8608C81.4228 44.4015 81.6927 43.9706 81.8679 43.5682C82.0478 43.161 82.1378 42.7348 82.1378 42.2898C82.1378 41.7784 82.0147 41.3357 81.7685 40.9616C81.527 40.5876 81.1955 40.2988 80.7741 40.0952C80.3527 39.8916 79.8793 39.7898 79.3537 39.7898C78.795 39.7898 78.3073 39.9058 77.8906 40.1378C77.4787 40.3651 77.1591 40.6847 76.9318 41.0966C76.7093 41.5085 76.598 41.9915 76.598 42.5455H74.9219C74.9219 41.6932 75.1184 40.9451 75.5114 40.3011C75.9044 39.6572 76.4394 39.1553 77.1165 38.7955C77.7983 38.4356 78.563 38.2557 79.4105 38.2557C80.2628 38.2557 81.018 38.4356 81.6761 38.7955C82.3343 39.1553 82.8504 39.6406 83.2244 40.2514C83.5985 40.8622 83.7855 41.5417 83.7855 42.2898C83.7855 42.8248 83.6884 43.348 83.4943 43.8594C83.3049 44.366 82.9735 44.9318 82.5 45.5568C82.0312 46.1771 81.3802 46.9347 80.5469 47.8295L77.2798 51.3239V51.4375H84.0412V53H74.8651ZM86.9744 53V51.7216L91.7756 46.4659C92.339 45.8504 92.803 45.3153 93.1676 44.8608C93.5322 44.4015 93.8021 43.9706 93.9773 43.5682C94.1572 43.161 94.2472 42.7348 94.2472 42.2898C94.2472 41.7784 94.1241 41.3357 93.8778 40.9616C93.6364 40.5876 93.3049 40.2988 92.8835 40.0952C92.4621 39.8916 91.9886 39.7898 91.4631 39.7898C90.9044 39.7898 90.4167 39.9058 90 40.1378C89.5881 40.3651 89.2685 40.6847 89.0412 41.0966C88.8187 41.5085 88.7074 41.9915 88.7074 42.5455H87.0312C87.0312 41.6932 87.2277 40.9451 87.6207 40.3011C88.0137 39.6572 88.5488 39.1553 89.2259 38.7955C89.9077 38.4356 90.6723 38.2557 91.5199 38.2557C92.3722 38.2557 93.1274 38.4356 93.7855 38.7955C94.4437 39.1553 94.9598 39.6406 95.3338 40.2514C95.7079 40.8622 95.8949 41.5417 95.8949 42.2898C95.8949 42.8248 95.7978 43.348 95.6037 43.8594C95.4143 44.366 95.0829 44.9318 94.6094 45.5568C94.1406 46.1771 93.4896 46.9347 92.6562 47.8295L89.3892 51.3239V51.4375H96.1506V53H86.9744ZM99.5384 53L106.044 40.1307V40.017H98.544V38.4545H107.862V40.1023L101.385 53H99.5384Z" fill="black"/>
<path d="M6.61932 132.455V147H4.85795V134.301H4.77273L1.22159 136.659V134.869L4.85795 132.455H6.61932ZM10.4616 144.017V142.568L16.8537 132.455H17.9048V134.699H17.1946L12.3651 142.341V142.455H20.973V144.017H10.4616ZM17.3082 147V143.577V142.902V132.455H18.9844V147H17.3082ZM28.18 147.199C27.3467 147.199 26.5962 147.033 25.9286 146.702C25.261 146.37 24.726 145.916 24.3235 145.338C23.921 144.76 23.7009 144.102 23.663 143.364H25.3675C25.4338 144.022 25.7321 144.566 26.2624 144.997C26.7975 145.423 27.4367 145.636 28.18 145.636C28.7766 145.636 29.3069 145.497 29.771 145.217C30.2397 144.938 30.6067 144.554 30.8718 144.067C31.1417 143.574 31.2766 143.018 31.2766 142.398C31.2766 141.763 31.137 141.197 30.8576 140.7C30.583 140.198 30.2042 139.803 29.7212 139.514C29.2383 139.225 28.6867 139.079 28.0664 139.074C27.6213 139.069 27.1644 139.138 26.6957 139.28C26.2269 139.417 25.841 139.595 25.538 139.812L23.8903 139.614L24.771 132.455H32.3278V134.017H26.2482L25.7369 138.307H25.8221C26.1204 138.07 26.4944 137.874 26.9442 137.717C27.3941 137.561 27.8628 137.483 28.3505 137.483C29.2406 137.483 30.0337 137.696 30.7298 138.122C31.4305 138.544 31.9798 139.121 32.3775 139.855C32.7799 140.589 32.9812 141.427 32.9812 142.369C32.9812 143.297 32.7728 144.126 32.3562 144.855C31.9442 145.58 31.3761 146.152 30.6516 146.574C29.9272 146.991 29.1033 147.199 28.18 147.199ZM40.9162 132.455V147H39.1548V134.301H39.0696L35.5185 136.659V134.869L39.1548 132.455H40.9162ZM59.9716 146.091L58.8778 145.011L63.3807 140.509H51.7188V138.946H63.3807L58.8778 134.457L59.9716 133.364L66.3352 139.727L59.9716 146.091ZM80.5451 132.455V147H78.7837V134.301H78.6985L75.1474 136.659V134.869L78.7837 132.455H80.5451ZM85.1829 147L91.6886 134.131V134.017H84.1886V132.455H93.5067V134.102L87.0295 147H85.1829ZM100.504 147.199C99.6709 147.199 98.9205 147.033 98.2528 146.702C97.5852 146.37 97.0502 145.916 96.6477 145.338C96.2453 144.76 96.0251 144.102 95.9872 143.364H97.6918C97.758 144.022 98.0563 144.566 98.5866 144.997C99.1217 145.423 99.7609 145.636 100.504 145.636C101.101 145.636 101.631 145.497 102.095 145.217C102.564 144.938 102.931 144.554 103.196 144.067C103.466 143.574 103.601 143.018 103.601 142.398C103.601 141.763 103.461 141.197 103.182 140.7C102.907 140.198 102.528 139.803 102.045 139.514C101.563 139.225 101.011 139.079 100.391 139.074C99.9455 139.069 99.4886 139.138 99.0199 139.28C98.5511 139.417 98.1652 139.595 97.8622 139.812L96.2145 139.614L97.0952 132.455H104.652V134.017H98.5724L98.0611 138.307H98.1463C98.4446 138.07 98.8187 137.874 99.2685 137.717C99.7183 137.561 100.187 137.483 100.675 137.483C101.565 137.483 102.358 137.696 103.054 138.122C103.755 138.544 104.304 139.121 104.702 139.855C105.104 140.589 105.305 141.427 105.305 142.369C105.305 143.297 105.097 144.126 104.68 144.855C104.268 145.58 103.7 146.152 102.976 146.574C102.251 146.991 101.428 147.199 100.504 147.199Z" fill="black"/>
<path d="M11.4205 79.1989C10.483 79.1989 9.64725 79.0379 8.91335 78.7159C8.18419 78.3939 7.60417 77.9465 7.1733 77.3736C6.74716 76.7959 6.51515 76.1259 6.47727 75.3636H8.26705C8.30492 75.8324 8.46591 76.2372 8.75 76.5781C9.03409 76.9143 9.40578 77.1747 9.86506 77.3594C10.3243 77.544 10.8333 77.6364 11.392 77.6364C12.017 77.6364 12.571 77.5275 13.054 77.3097C13.5369 77.0919 13.9157 76.7888 14.1903 76.4006C14.465 76.0123 14.6023 75.5625 14.6023 75.0511C14.6023 74.5161 14.4697 74.045 14.2045 73.6378C13.9394 73.2259 13.5511 72.9039 13.0398 72.6719C12.5284 72.4399 11.9034 72.3239 11.1648 72.3239H10V70.7614H11.1648C11.7424 70.7614 12.2491 70.6572 12.6847 70.4489C13.125 70.2405 13.4683 69.947 13.7145 69.5682C13.9654 69.1894 14.0909 68.7443 14.0909 68.233C14.0909 67.7405 13.982 67.312 13.7642 66.9474C13.5464 66.5829 13.2386 66.2988 12.8409 66.0952C12.4479 65.8916 11.9839 65.7898 11.4489 65.7898C10.947 65.7898 10.4735 65.8821 10.0284 66.0668C9.58807 66.2467 9.22822 66.5095 8.94886 66.8551C8.66951 67.196 8.51799 67.608 8.49432 68.0909H6.78977C6.81818 67.3286 7.04782 66.661 7.47869 66.0881C7.90956 65.5104 8.47301 65.0606 9.16903 64.7386C9.86979 64.4167 10.6392 64.2557 11.4773 64.2557C12.3769 64.2557 13.1487 64.438 13.7926 64.8026C14.4366 65.1624 14.9313 65.6383 15.277 66.2301C15.6226 66.822 15.7955 67.4612 15.7955 68.1477C15.7955 68.9669 15.58 69.6652 15.1491 70.2429C14.723 70.8205 14.143 71.2206 13.4091 71.4432V71.5568C14.3277 71.7083 15.045 72.099 15.5611 72.7287C16.0772 73.3537 16.3352 74.1278 16.3352 75.0511C16.3352 75.8419 16.1198 76.5521 15.6889 77.1818C15.2628 77.8068 14.6804 78.2992 13.9418 78.6591C13.2031 79.0189 12.3627 79.1989 11.4205 79.1989ZM19.2401 79V77.7216L24.0412 72.4659C24.6046 71.8504 25.0687 71.3153 25.4332 70.8608C25.7978 70.4015 26.0677 69.9706 26.2429 69.5682C26.4228 69.161 26.5128 68.7348 26.5128 68.2898C26.5128 67.7784 26.3897 67.3357 26.1435 66.9616C25.902 66.5876 25.5705 66.2988 25.1491 66.0952C24.7277 65.8916 24.2543 65.7898 23.7287 65.7898C23.17 65.7898 22.6823 65.9058 22.2656 66.1378C21.8537 66.3651 21.5341 66.6847 21.3068 67.0966C21.0843 67.5085 20.973 67.9915 20.973 68.5455H19.2969C19.2969 67.6932 19.4934 66.9451 19.8864 66.3011C20.2794 65.6572 20.8144 65.1553 21.4915 64.7955C22.1733 64.4356 22.938 64.2557 23.7855 64.2557C24.6378 64.2557 25.393 64.4356 26.0511 64.7955C26.7093 65.1553 27.2254 65.6406 27.5994 66.2514C27.9735 66.8622 28.1605 67.5417 28.1605 68.2898C28.1605 68.8248 28.0634 69.348 27.8693 69.8594C27.6799 70.366 27.3485 70.9318 26.875 71.5568C26.4062 72.1771 25.7552 72.9347 24.9219 73.8295L21.6548 77.3239V77.4375H28.4162V79H19.2401ZM36.0085 79.1989C35.0331 79.1989 34.1714 79.026 33.4233 78.6804C32.6799 78.33 32.0999 77.8494 31.6832 77.2386C31.2666 76.6231 31.0606 75.9223 31.0653 75.1364C31.0606 74.5208 31.1813 73.9527 31.4276 73.4318C31.6738 72.9062 32.0099 72.4683 32.4361 72.1179C32.867 71.7628 33.3475 71.5379 33.8778 71.4432V71.358C33.1818 71.178 32.6278 70.7874 32.2159 70.1861C31.804 69.58 31.6004 68.8911 31.6051 68.1193C31.6004 67.3807 31.7874 66.7202 32.1662 66.1378C32.545 65.5554 33.0658 65.0961 33.7287 64.7599C34.3963 64.4238 35.1563 64.2557 36.0085 64.2557C36.8513 64.2557 37.6042 64.4238 38.267 64.7599C38.9299 65.0961 39.4508 65.5554 39.8295 66.1378C40.2131 66.7202 40.4072 67.3807 40.4119 68.1193C40.4072 68.8911 40.1965 69.58 39.7798 70.1861C39.3679 70.7874 38.821 71.178 38.1392 71.358V71.4432C38.6648 71.5379 39.1383 71.7628 39.5597 72.1179C39.9811 72.4683 40.3172 72.9062 40.5682 73.4318C40.8191 73.9527 40.947 74.5208 40.9517 75.1364C40.947 75.9223 40.7339 76.6231 40.3125 77.2386C39.8958 77.8494 39.3158 78.33 38.5724 78.6804C37.8338 79.026 36.9792 79.1989 36.0085 79.1989ZM36.0085 77.6364C36.6667 77.6364 37.2348 77.5298 37.7131 77.3168C38.1913 77.1037 38.5606 76.803 38.821 76.4148C39.0814 76.0265 39.214 75.572 39.2188 75.0511C39.214 74.5019 39.072 74.0166 38.7926 73.5952C38.5133 73.1738 38.1321 72.8423 37.6491 72.6009C37.1709 72.3594 36.6241 72.2386 36.0085 72.2386C35.3883 72.2386 34.8343 72.3594 34.3466 72.6009C33.8636 72.8423 33.4825 73.1738 33.2031 73.5952C32.9285 74.0166 32.7936 74.5019 32.7983 75.0511C32.7936 75.572 32.919 76.0265 33.1747 76.4148C33.4351 76.803 33.8068 77.1037 34.2898 77.3168C34.7727 77.5298 35.3456 77.6364 36.0085 77.6364ZM36.0085 70.733C36.5294 70.733 36.991 70.6288 37.3935 70.4205C37.8007 70.2121 38.1203 69.9209 38.3523 69.5469C38.5843 69.1728 38.7027 68.7348 38.7074 68.233C38.7027 67.7405 38.5866 67.312 38.3594 66.9474C38.1321 66.5781 37.8172 66.294 37.4148 66.0952C37.0123 65.8916 36.5436 65.7898 36.0085 65.7898C35.464 65.7898 34.9882 65.8916 34.581 66.0952C34.1738 66.294 33.8589 66.5781 33.6364 66.9474C33.4138 67.312 33.3049 67.7405 33.3097 68.233C33.3049 68.7348 33.4162 69.1728 33.6435 69.5469C33.8755 69.9209 34.1951 70.2121 34.6023 70.4205C35.0095 70.6288 35.4782 70.733 36.0085 70.733ZM58.5458 78.0909L57.4521 77.0114L61.9549 72.5085H50.293V70.946H61.9549L57.4521 66.4574L58.5458 65.3636L64.9094 71.7273L58.5458 78.0909ZM79.1193 64.4545V79H77.358V66.3011H77.2727L73.7216 68.6591V66.8693L77.358 64.4545H79.1193ZM83.3026 79V77.7216L88.1037 72.4659C88.6671 71.8504 89.1312 71.3153 89.4957 70.8608C89.8603 70.4015 90.1302 69.9706 90.3054 69.5682C90.4853 69.161 90.5753 68.7348 90.5753 68.2898C90.5753 67.7784 90.4522 67.3357 90.206 66.9616C89.9645 66.5876 89.633 66.2988 89.2116 66.0952C88.7902 65.8916 88.3168 65.7898 87.7912 65.7898C87.2325 65.7898 86.7448 65.9058 86.3281 66.1378C85.9162 66.3651 85.5966 66.6847 85.3693 67.0966C85.1468 67.5085 85.0355 67.9915 85.0355 68.5455H83.3594C83.3594 67.6932 83.5559 66.9451 83.9489 66.3011C84.3419 65.6572 84.8769 65.1553 85.554 64.7955C86.2358 64.4356 87.0005 64.2557 87.848 64.2557C88.7003 64.2557 89.4555 64.4356 90.1136 64.7955C90.7718 65.1553 91.2879 65.6406 91.6619 66.2514C92.036 66.8622 92.223 67.5417 92.223 68.2898C92.223 68.8248 92.1259 69.348 91.9318 69.8594C91.7424 70.366 91.411 70.9318 90.9375 71.5568C90.4688 72.1771 89.8177 72.9347 88.9844 73.8295L85.7173 77.3239V77.4375H92.4787V79H83.3026ZM100.043 64.2557C100.639 64.2604 101.236 64.3741 101.832 64.5966C102.429 64.8191 102.973 65.1884 103.466 65.7045C103.958 66.2159 104.354 66.9143 104.652 67.7997C104.95 68.6851 105.099 69.7955 105.099 71.1307C105.099 72.4233 104.976 73.5715 104.73 74.5753C104.489 75.5743 104.138 76.4171 103.679 77.1037C103.224 77.7902 102.67 78.3111 102.017 78.6662C101.368 79.0213 100.634 79.1989 99.8153 79.1989C99.0009 79.1989 98.2741 79.0379 97.6349 78.7159C97.0005 78.3892 96.4796 77.937 96.0724 77.3594C95.67 76.777 95.4119 76.1023 95.2983 75.3352H97.0312C97.1875 76.0028 97.4976 76.5545 97.9616 76.9901C98.4304 77.4209 99.0483 77.6364 99.8153 77.6364C100.938 77.6364 101.823 77.1463 102.472 76.1662C103.125 75.1861 103.452 73.8011 103.452 72.0114H103.338C103.073 72.4091 102.758 72.7524 102.393 73.0412C102.029 73.33 101.624 73.5526 101.179 73.7088C100.734 73.8651 100.26 73.9432 99.7585 73.9432C98.9252 73.9432 98.1605 73.7372 97.4645 73.3253C96.7732 72.9086 96.2192 72.3381 95.8026 71.6136C95.3906 70.8845 95.1847 70.0511 95.1847 69.1136C95.1847 68.2235 95.3835 67.4091 95.7812 66.6705C96.1837 65.9271 96.7472 65.3352 97.4716 64.8949C98.2008 64.4545 99.0578 64.2415 100.043 64.2557ZM100.043 65.8182C99.446 65.8182 98.9086 65.9673 98.4304 66.2656C97.9569 66.5592 97.5805 66.9569 97.3011 67.4588C97.0265 67.956 96.8892 68.5076 96.8892 69.1136C96.8892 69.7197 97.0218 70.2713 97.2869 70.7685C97.5568 71.2609 97.9238 71.6539 98.3878 71.9474C98.8565 72.2363 99.3892 72.3807 99.9858 72.3807C100.436 72.3807 100.855 72.2931 101.243 72.1179C101.631 71.938 101.97 71.6941 102.259 71.3864C102.552 71.0739 102.782 70.7211 102.947 70.3281C103.113 69.9304 103.196 69.5161 103.196 69.0852C103.196 68.517 103.059 67.9844 102.784 67.4872C102.514 66.9901 102.14 66.5876 101.662 66.2798C101.188 65.9721 100.649 65.8182 100.043 65.8182Z" fill="black"/>
<path d="M57 92.168C57.696 92.168 58.272 92.744 58.272 93.44C58.272 94.148 57.696 94.724 57 94.724C56.292 94.724 55.716 94.148 55.716 93.44C55.716 92.744 56.292 92.168 57 92.168ZM57 107.168C57.696 107.168 58.272 107.744 58.272 108.44C58.272 109.148 57.696 109.724 57 109.724C56.292 109.724 55.716 109.148 55.716 108.44C55.716 107.744 56.292 107.168 57 107.168ZM57 122.168C57.696 122.168 58.272 122.744 58.272 123.44C58.272 124.148 57.696 124.724 57 124.724C56.292 124.724 55.716 124.148 55.716 123.44C55.716 122.744 56.292 122.168 57 122.168Z" fill="black"/>
</svg>
