<svg width="173" height="183" viewBox="0 0 173 183" fill="none" xmlns="http://www.w3.org/2000/svg">
<path d="M34.9 5.64C35.42 5.7 36.16 5.74 36.58 5.74H47.56C48.18 5.74 48.8 5.7 49.28 5.64V7.38C48.78 7.34 48.14 7.3 47.56 7.3H36.58C36.18 7.3 35.4 7.34 34.9 7.38V5.64ZM41.08 17.38V6.64H42.78V17.38H41.08ZM33.68 16.4C34.26 16.48 34.88 16.52 35.44 16.52H48.66C49.26 16.52 49.8 16.44 50.3 16.4V18.2C49.78 18.14 49.04 18.14 48.66 18.14H35.44C34.9 18.14 34.28 18.16 33.68 18.2V16.4ZM56.54 4.36C57.94 5.3 60.52 7.38 61.62 8.48L60.38 9.76C59.36 8.72 56.88 6.56 55.38 5.58L56.54 4.36ZM54.82 17.76C58.3 17.24 60.9 16.02 62.8 14.84C65.9 12.9 68.32 9.94 69.48 7.46L70.44 9.18C69.08 11.66 66.76 14.38 63.74 16.28C61.72 17.54 59.2 18.78 55.86 19.4L54.82 17.76ZM75.42 5.3C76.1 5.36 76.96 5.42 77.62 5.42H87.46C87.96 5.42 88.54 5.4 88.94 5.38C88.92 5.82 88.9 6.46 88.9 6.92V17.26C88.9 17.98 88.96 18.88 88.98 19.18H87.18C87.18 18.88 87.22 18.14 87.22 17.42V7H77.62C76.88 7 75.9 7.04 75.42 7.08V5.3ZM75.18 16.34C75.68 16.38 76.56 16.44 77.38 16.44H88.12V18.08H77.44C76.62 18.08 75.72 18.1 75.18 18.16V16.34ZM94.02 10.34C94.64 10.4 95.68 10.46 96.82 10.46C98.28 10.46 106.3 10.46 107.78 10.46C108.78 10.46 109.48 10.38 109.94 10.34V12.3C109.52 12.28 108.68 12.22 107.8 12.22C106.28 12.22 98.3 12.22 96.82 12.22C95.72 12.22 94.66 12.26 94.02 12.3V10.34ZM125.12 4.62C125.62 5.34 126.48 6.68 126.94 7.64L125.8 8.16C125.3 7.1 124.66 6 124 5.1L125.12 4.62ZM127.52 3.62C128.06 4.32 128.94 5.64 129.4 6.58L128.28 7.14C127.76 6.08 127.1 5.02 126.44 4.14L127.52 3.62ZM118.1 17.5C118.1 16.4 118.1 7.56 118.1 5.88C118.1 5.3 118.04 4.42 117.94 3.8H119.9C119.84 4.4 119.76 5.28 119.76 5.88C119.76 9 119.78 16.56 119.78 17.5C119.78 18.14 119.82 19.22 119.9 19.88H117.96C118.06 19.24 118.1 18.26 118.1 17.5ZM119.4 9.04C122.06 9.8 126.08 11.34 128.3 12.44L127.6 14.12C125.32 12.9 121.58 11.48 119.4 10.8V9.04Z" fill="black"/>
<path d="M4.68 38.98C6.12 39.14 7.96 39.22 9.98 39.22C11.9 39.22 13.92 39.1 15.36 38.94V40.58C14 40.68 11.82 40.82 9.98 40.82C7.98 40.82 6.26 40.74 4.68 40.6V38.98ZM5.48 47.04C5.24 47.82 5.08 48.56 5.08 49.3C5.08 50.84 6.64 51.88 9.84 51.88C12.58 51.88 15.16 51.58 16.68 51.1L16.7 52.82C15.26 53.2 12.72 53.5 9.88 53.5C5.82 53.5 3.46 52.18 3.46 49.66C3.46 48.62 3.68 47.68 3.86 46.88L5.48 47.04ZM36.3778 52.0909L35.2841 51.0114L39.7869 46.5085H28.125V44.946H39.7869L35.2841 40.4574L36.3778 39.3636L42.7415 45.7273L36.3778 52.0909ZM51.8377 53V51.7216L56.6388 46.4659C57.2023 45.8504 57.6663 45.3153 58.0309 44.8608C58.3955 44.4015 58.6654 43.9706 58.8406 43.5682C59.0205 43.161 59.1104 42.7348 59.1104 42.2898C59.1104 41.7784 58.9873 41.3357 58.7411 40.9616C58.4996 40.5876 58.1682 40.2988 57.7468 40.0952C57.3254 39.8916 56.8519 39.7898 56.3263 39.7898C55.7676 39.7898 55.2799 39.9058 54.8633 40.1378C54.4513 40.3651 54.1317 40.6847 53.9045 41.0966C53.6819 41.5085 53.5707 41.9915 53.5707 42.5455H51.8945C51.8945 41.6932 52.091 40.9451 52.484 40.3011C52.877 39.6572 53.4121 39.1553 54.0891 38.7955C54.771 38.4356 55.5356 38.2557 56.3832 38.2557C57.2354 38.2557 57.9906 38.4356 58.6488 38.7955C59.3069 39.1553 59.823 39.6406 60.1971 40.2514C60.5711 40.8622 60.7582 41.5417 60.7582 42.2898C60.7582 42.8248 60.6611 43.348 60.467 43.8594C60.2776 44.366 59.9461 44.9318 59.4727 45.5568C59.0039 46.1771 58.3529 46.9347 57.5195 47.8295L54.2525 51.3239V51.4375H61.0138V53H51.8377ZM63.9471 53V51.7216L68.7482 46.4659C69.3117 45.8504 69.7757 45.3153 70.1403 44.8608C70.5049 44.4015 70.7747 43.9706 70.9499 43.5682C71.1299 43.161 71.2198 42.7348 71.2198 42.2898C71.2198 41.7784 71.0967 41.3357 70.8505 40.9616C70.609 40.5876 70.2776 40.2988 69.8562 40.0952C69.4348 39.8916 68.9613 39.7898 68.4357 39.7898C67.877 39.7898 67.3893 39.9058 66.9727 40.1378C66.5607 40.3651 66.2411 40.6847 66.0138 41.0966C65.7913 41.5085 65.68 41.9915 65.68 42.5455H64.0039C64.0039 41.6932 64.2004 40.9451 64.5934 40.3011C64.9864 39.6572 65.5214 39.1553 66.1985 38.7955C66.8803 38.4356 67.645 38.2557 68.4925 38.2557C69.3448 38.2557 70.1 38.4356 70.7582 38.7955C71.4163 39.1553 71.9324 39.6406 72.3065 40.2514C72.6805 40.8622 72.8675 41.5417 72.8675 42.2898C72.8675 42.8248 72.7705 43.348 72.5763 43.8594C72.387 44.366 72.0555 44.9318 71.582 45.5568C71.1133 46.1771 70.4622 46.9347 69.6289 47.8295L66.3619 51.3239V51.4375H73.1232V53H63.9471ZM76.511 53L83.0167 40.1307V40.017H75.5167V38.4545H84.8349V40.1023L78.3576 53H76.511ZM98.2209 38.4545V53H96.4595V40.3011H96.3743L92.8232 42.6591V40.8693L96.4595 38.4545H98.2209ZM102.404 53V51.7216L107.205 46.4659C107.769 45.8504 108.233 45.3153 108.597 44.8608C108.962 44.4015 109.232 43.9706 109.407 43.5682C109.587 43.161 109.677 42.7348 109.677 42.2898C109.677 41.7784 109.554 41.3357 109.308 40.9616C109.066 40.5876 108.735 40.2988 108.313 40.0952C107.892 39.8916 107.418 39.7898 106.893 39.7898C106.334 39.7898 105.846 39.9058 105.43 40.1378C105.018 40.3651 104.698 40.6847 104.471 41.0966C104.248 41.5085 104.137 41.9915 104.137 42.5455H102.461C102.461 41.6932 102.657 40.9451 103.05 40.3011C103.443 39.6572 103.978 39.1553 104.656 38.7955C105.337 38.4356 106.102 38.2557 106.95 38.2557C107.802 38.2557 108.557 38.4356 109.215 38.7955C109.873 39.1553 110.389 39.6406 110.763 40.2514C111.138 40.8622 111.325 41.5417 111.325 42.2898C111.325 42.8248 111.228 43.348 111.033 43.8594C110.844 44.366 110.513 44.9318 110.039 45.5568C109.57 46.1771 108.919 46.9347 108.086 47.8295L104.819 51.3239V51.4375H111.58V53H102.404ZM119.144 38.2557C119.741 38.2604 120.337 38.3741 120.934 38.5966C121.531 38.8191 122.075 39.1884 122.567 39.7045C123.06 40.2159 123.455 40.9143 123.754 41.7997C124.052 42.6851 124.201 43.7955 124.201 45.1307C124.201 46.4233 124.078 47.5715 123.832 48.5753C123.59 49.5743 123.24 50.4171 122.781 51.1037C122.326 51.7902 121.772 52.3111 121.119 52.6662C120.47 53.0213 119.736 53.1989 118.917 53.1989C118.103 53.1989 117.376 53.0379 116.737 52.7159C116.102 52.3892 115.581 51.937 115.174 51.3594C114.772 50.777 114.513 50.1023 114.4 49.3352H116.133C116.289 50.0028 116.599 50.5545 117.063 50.9901C117.532 51.4209 118.15 51.6364 118.917 51.6364C120.039 51.6364 120.924 51.1463 121.573 50.1662C122.227 49.1861 122.553 47.8011 122.553 46.0114H122.44C122.174 46.4091 121.86 46.7524 121.495 47.0412C121.13 47.33 120.726 47.5526 120.281 47.7088C119.835 47.8651 119.362 47.9432 118.86 47.9432C118.027 47.9432 117.262 47.7372 116.566 47.3253C115.875 46.9086 115.321 46.3381 114.904 45.6136C114.492 44.8845 114.286 44.0511 114.286 43.1136C114.286 42.2235 114.485 41.4091 114.883 40.6705C115.285 39.9271 115.849 39.3352 116.573 38.8949C117.302 38.4545 118.159 38.2415 119.144 38.2557ZM119.144 39.8182C118.548 39.8182 118.01 39.9673 117.532 40.2656C117.058 40.5592 116.682 40.9569 116.403 41.4588C116.128 41.956 115.991 42.5076 115.991 43.1136C115.991 43.7197 116.123 44.2713 116.388 44.7685C116.658 45.2609 117.025 45.6539 117.489 45.9474C117.958 46.2363 118.491 46.3807 119.087 46.3807C119.537 46.3807 119.956 46.2931 120.344 46.1179C120.733 45.938 121.071 45.6941 121.36 45.3864C121.654 45.0739 121.883 44.7211 122.049 44.3281C122.215 43.9304 122.298 43.5161 122.298 43.0852C122.298 42.517 122.16 41.9844 121.886 41.4872C121.616 40.9901 121.242 40.5876 120.763 40.2798C120.29 39.9721 119.75 39.8182 119.144 39.8182ZM137.733 38.4545V53H135.971V40.3011H135.886L132.335 42.6591V40.8693L135.971 38.4545H137.733ZM141.575 50.017V48.5682L147.967 38.4545H149.018V40.6989H148.308L143.478 48.3409V48.4545H152.086V50.017H141.575ZM148.422 53V49.5767V48.902V38.4545H150.098V53H148.422ZM155.202 53L161.708 40.1307V40.017H154.208V38.4545H163.526V40.1023L157.049 53H155.202Z" fill="black"/>
<path d="M7.96 169.18C9.1 169.3 10.18 169.36 11.36 169.36C13.76 169.36 16.22 169.18 18.24 168.76V170.3C16.12 170.66 13.68 170.82 11.34 170.82C10.18 170.82 9.14 170.78 7.98 170.7L7.96 169.18ZM14.96 165.6C14.9 166 14.86 166.42 14.84 166.8C14.8 167.54 14.78 168.96 14.78 170.14C14.78 173.22 15.08 176.34 15.08 178.4C15.08 180.04 14.32 181.64 11.62 181.64C8.94 181.64 7.48 180.56 7.48 178.76C7.48 177.08 8.96 175.76 11.6 175.76C14.96 175.76 17.3 177.46 18.98 178.98L18.12 180.3C16.02 178.34 14 176.98 11.46 176.98C9.96 176.98 8.92 177.64 8.92 178.6C8.92 179.64 9.9 180.18 11.36 180.18C13.04 180.18 13.52 179.34 13.52 178C13.52 176.56 13.26 172.82 13.26 170.18C13.26 168.8 13.24 167.54 13.24 166.84C13.24 166.48 13.22 165.96 13.16 165.6H14.96ZM5.1 165.74C4.98 166.06 4.82 166.72 4.74 167.08C4.34 168.94 3.74 172.9 3.74 175.14C3.74 176.12 3.8 176.96 3.94 177.94C4.26 177.02 4.76 175.8 5.1 174.98L5.92 175.62C5.42 177.02 4.68 179.06 4.48 180.04C4.42 180.32 4.38 180.72 4.4 180.94C4.42 181.14 4.44 181.44 4.46 181.64L3.04 181.76C2.66 180.32 2.28 178.12 2.28 175.42C2.28 172.48 2.96 168.66 3.2 167.02C3.28 166.54 3.32 166.02 3.34 165.58L5.1 165.74ZM36.3778 180.091L35.2841 179.011L39.7869 174.509H28.125V172.946H39.7869L35.2841 168.457L36.3778 167.364L42.7415 173.727L36.3778 180.091ZM51.8377 181V179.722L56.6388 174.466C57.2023 173.85 57.6663 173.315 58.0309 172.861C58.3955 172.402 58.6654 171.971 58.8406 171.568C59.0205 171.161 59.1104 170.735 59.1104 170.29C59.1104 169.778 58.9873 169.336 58.7411 168.962C58.4996 168.588 58.1682 168.299 57.7468 168.095C57.3254 167.892 56.8519 167.79 56.3263 167.79C55.7676 167.79 55.2799 167.906 54.8633 168.138C54.4513 168.365 54.1317 168.685 53.9045 169.097C53.6819 169.509 53.5707 169.991 53.5707 170.545H51.8945C51.8945 169.693 52.091 168.945 52.484 168.301C52.877 167.657 53.4121 167.155 54.0891 166.795C54.771 166.436 55.5356 166.256 56.3832 166.256C57.2354 166.256 57.9906 166.436 58.6488 166.795C59.3069 167.155 59.823 167.641 60.1971 168.251C60.5711 168.862 60.7582 169.542 60.7582 170.29C60.7582 170.825 60.6611 171.348 60.467 171.859C60.2776 172.366 59.9461 172.932 59.4727 173.557C59.0039 174.177 58.3529 174.935 57.5195 175.83L54.2525 179.324V179.438H61.0138V181H51.8377ZM63.9471 181V179.722L68.7482 174.466C69.3117 173.85 69.7757 173.315 70.1403 172.861C70.5049 172.402 70.7747 171.971 70.9499 171.568C71.1299 171.161 71.2198 170.735 71.2198 170.29C71.2198 169.778 71.0967 169.336 70.8505 168.962C70.609 168.588 70.2776 168.299 69.8562 168.095C69.4348 167.892 68.9613 167.79 68.4357 167.79C67.877 167.79 67.3893 167.906 66.9727 168.138C66.5607 168.365 66.2411 168.685 66.0138 169.097C65.7913 169.509 65.68 169.991 65.68 170.545H64.0039C64.0039 169.693 64.2004 168.945 64.5934 168.301C64.9864 167.657 65.5214 167.155 66.1985 166.795C66.8803 166.436 67.645 166.256 68.4925 166.256C69.3448 166.256 70.1 166.436 70.7582 166.795C71.4163 167.155 71.9324 167.641 72.3065 168.251C72.6805 168.862 72.8675 169.542 72.8675 170.29C72.8675 170.825 72.7705 171.348 72.5763 171.859C72.387 172.366 72.0555 172.932 71.582 173.557C71.1133 174.177 70.4622 174.935 69.6289 175.83L66.3619 179.324V179.438H73.1232V181H63.9471ZM76.511 181L83.0167 168.131V168.017H75.5167V166.455H84.8349V168.102L78.3576 181H76.511ZM98.2209 166.455V181H96.4595V168.301H96.3743L92.8232 170.659V168.869L96.4595 166.455H98.2209ZM102.404 181V179.722L107.205 174.466C107.769 173.85 108.233 173.315 108.597 172.861C108.962 172.402 109.232 171.971 109.407 171.568C109.587 171.161 109.677 170.735 109.677 170.29C109.677 169.778 109.554 169.336 109.308 168.962C109.066 168.588 108.735 168.299 108.313 168.095C107.892 167.892 107.418 167.79 106.893 167.79C106.334 167.79 105.846 167.906 105.43 168.138C105.018 168.365 104.698 168.685 104.471 169.097C104.248 169.509 104.137 169.991 104.137 170.545H102.461C102.461 169.693 102.657 168.945 103.05 168.301C103.443 167.657 103.978 167.155 104.656 166.795C105.337 166.436 106.102 166.256 106.95 166.256C107.802 166.256 108.557 166.436 109.215 166.795C109.873 167.155 110.389 167.641 110.763 168.251C111.138 168.862 111.325 169.542 111.325 170.29C111.325 170.825 111.228 171.348 111.033 171.859C110.844 172.366 110.513 172.932 110.039 173.557C109.57 174.177 108.919 174.935 108.086 175.83L104.819 179.324V179.438H111.58V181H102.404ZM119.144 166.256C119.741 166.26 120.337 166.374 120.934 166.597C121.531 166.819 122.075 167.188 122.567 167.705C123.06 168.216 123.455 168.914 123.754 169.8C124.052 170.685 124.201 171.795 124.201 173.131C124.201 174.423 124.078 175.571 123.832 176.575C123.59 177.574 123.24 178.417 122.781 179.104C122.326 179.79 121.772 180.311 121.119 180.666C120.47 181.021 119.736 181.199 118.917 181.199C118.103 181.199 117.376 181.038 116.737 180.716C116.102 180.389 115.581 179.937 115.174 179.359C114.772 178.777 114.513 178.102 114.4 177.335H116.133C116.289 178.003 116.599 178.554 117.063 178.99C117.532 179.421 118.15 179.636 118.917 179.636C120.039 179.636 120.924 179.146 121.573 178.166C122.227 177.186 122.553 175.801 122.553 174.011H122.44C122.174 174.409 121.86 174.752 121.495 175.041C121.13 175.33 120.726 175.553 120.281 175.709C119.835 175.865 119.362 175.943 118.86 175.943C118.027 175.943 117.262 175.737 116.566 175.325C115.875 174.909 115.321 174.338 114.904 173.614C114.492 172.884 114.286 172.051 114.286 171.114C114.286 170.223 114.485 169.409 114.883 168.67C115.285 167.927 115.849 167.335 116.573 166.895C117.302 166.455 118.159 166.241 119.144 166.256ZM119.144 167.818C118.548 167.818 118.01 167.967 117.532 168.266C117.058 168.559 116.682 168.957 116.403 169.459C116.128 169.956 115.991 170.508 115.991 171.114C115.991 171.72 116.123 172.271 116.388 172.768C116.658 173.261 117.025 173.654 117.489 173.947C117.958 174.236 118.491 174.381 119.087 174.381C119.537 174.381 119.956 174.293 120.344 174.118C120.733 173.938 121.071 173.694 121.36 173.386C121.654 173.074 121.883 172.721 122.049 172.328C122.215 171.93 122.298 171.516 122.298 171.085C122.298 170.517 122.16 169.984 121.886 169.487C121.616 168.99 121.242 168.588 120.763 168.28C120.29 167.972 119.75 167.818 119.144 167.818ZM137.733 166.455V181H135.971V168.301H135.886L132.335 170.659V168.869L135.971 166.455H137.733ZM142.37 181L148.876 168.131V168.017H141.376V166.455H150.694V168.102L144.217 181H142.37ZM157.692 181.199C156.858 181.199 156.108 181.033 155.44 180.702C154.773 180.37 154.238 179.916 153.835 179.338C153.433 178.76 153.213 178.102 153.175 177.364H154.879C154.946 178.022 155.244 178.566 155.774 178.997C156.309 179.423 156.948 179.636 157.692 179.636C158.288 179.636 158.819 179.497 159.283 179.217C159.751 178.938 160.118 178.554 160.384 178.067C160.653 177.574 160.788 177.018 160.788 176.398C160.788 175.763 160.649 175.197 160.369 174.7C160.095 174.198 159.716 173.803 159.233 173.514C158.75 173.225 158.198 173.079 157.578 173.074C157.133 173.069 156.676 173.138 156.207 173.28C155.739 173.417 155.353 173.595 155.05 173.812L153.402 173.614L154.283 166.455H161.839V168.017H155.76L155.249 172.307H155.334C155.632 172.07 156.006 171.874 156.456 171.717C156.906 171.561 157.375 171.483 157.862 171.483C158.752 171.483 159.545 171.696 160.241 172.122C160.942 172.544 161.491 173.121 161.889 173.855C162.292 174.589 162.493 175.427 162.493 176.369C162.493 177.297 162.285 178.126 161.868 178.855C161.456 179.58 160.888 180.152 160.163 180.574C159.439 180.991 158.615 181.199 157.692 181.199Z" fill="black"/>
<path d="M8.46 133.34C8.3 133.88 8.2 134.5 8.08 135.02C7.8 136.62 7 140.48 6.32 142.34C8.06 141.12 9.86 140.62 11.94 140.62C15.12 140.62 16.98 142.24 16.98 144.58C16.98 148.76 12.72 150.3 6.64 149.66L6.22 148.06C10.86 148.7 15.34 147.92 15.34 144.62C15.34 143.14 14.12 141.98 11.78 141.98C9.4 141.98 7.18 142.8 5.86 144.38C5.62 144.68 5.44 144.96 5.24 145.3L3.76 144.78C5.28 141.8 6.34 136.84 6.58 134.92C6.66 134.28 6.7 133.8 6.66 133.26L8.46 133.34ZM2.24 135.9C3.3 136.08 4.82 136.22 6.02 136.22C8.58 136.22 12.52 135.92 15.66 135.22L15.7 136.76C12.86 137.26 8.78 137.66 6.04 137.66C4.68 137.66 3.4 137.56 2.26 137.46L2.24 135.9ZM36.3778 148.091L35.2841 147.011L39.7869 142.509H28.125V140.946H39.7869L35.2841 136.457L36.3778 135.364L42.7415 141.727L36.3778 148.091ZM51.8377 149V147.722L56.6388 142.466C57.2023 141.85 57.6663 141.315 58.0309 140.861C58.3955 140.402 58.6654 139.971 58.8406 139.568C59.0205 139.161 59.1104 138.735 59.1104 138.29C59.1104 137.778 58.9873 137.336 58.7411 136.962C58.4996 136.588 58.1682 136.299 57.7468 136.095C57.3254 135.892 56.8519 135.79 56.3263 135.79C55.7676 135.79 55.2799 135.906 54.8633 136.138C54.4513 136.365 54.1317 136.685 53.9045 137.097C53.6819 137.509 53.5707 137.991 53.5707 138.545H51.8945C51.8945 137.693 52.091 136.945 52.484 136.301C52.877 135.657 53.4121 135.155 54.0891 134.795C54.771 134.436 55.5356 134.256 56.3832 134.256C57.2354 134.256 57.9906 134.436 58.6488 134.795C59.3069 135.155 59.823 135.641 60.1971 136.251C60.5711 136.862 60.7582 137.542 60.7582 138.29C60.7582 138.825 60.6611 139.348 60.467 139.859C60.2776 140.366 59.9461 140.932 59.4727 141.557C59.0039 142.177 58.3529 142.935 57.5195 143.83L54.2525 147.324V147.438H61.0138V149H51.8377ZM63.9471 149V147.722L68.7482 142.466C69.3117 141.85 69.7757 141.315 70.1403 140.861C70.5049 140.402 70.7747 139.971 70.9499 139.568C71.1299 139.161 71.2198 138.735 71.2198 138.29C71.2198 137.778 71.0967 137.336 70.8505 136.962C70.609 136.588 70.2776 136.299 69.8562 136.095C69.4348 135.892 68.9613 135.79 68.4357 135.79C67.877 135.79 67.3893 135.906 66.9727 136.138C66.5607 136.365 66.2411 136.685 66.0138 137.097C65.7913 137.509 65.68 137.991 65.68 138.545H64.0039C64.0039 137.693 64.2004 136.945 64.5934 136.301C64.9864 135.657 65.5214 135.155 66.1985 134.795C66.8803 134.436 67.645 134.256 68.4925 134.256C69.3448 134.256 70.1 134.436 70.7582 134.795C71.4163 135.155 71.9324 135.641 72.3065 136.251C72.6805 136.862 72.8675 137.542 72.8675 138.29C72.8675 138.825 72.7705 139.348 72.5763 139.859C72.387 140.366 72.0555 140.932 71.582 141.557C71.1133 142.177 70.4622 142.935 69.6289 143.83L66.3619 147.324V147.438H73.1232V149H63.9471ZM76.511 149L83.0167 136.131V136.017H75.5167V134.455H84.8349V136.102L78.3576 149H76.511ZM98.2209 134.455V149H96.4595V136.301H96.3743L92.8232 138.659V136.869L96.4595 134.455H98.2209ZM102.404 149V147.722L107.205 142.466C107.769 141.85 108.233 141.315 108.597 140.861C108.962 140.402 109.232 139.971 109.407 139.568C109.587 139.161 109.677 138.735 109.677 138.29C109.677 137.778 109.554 137.336 109.308 136.962C109.066 136.588 108.735 136.299 108.313 136.095C107.892 135.892 107.418 135.79 106.893 135.79C106.334 135.79 105.846 135.906 105.43 136.138C105.018 136.365 104.698 136.685 104.471 137.097C104.248 137.509 104.137 137.991 104.137 138.545H102.461C102.461 137.693 102.657 136.945 103.05 136.301C103.443 135.657 103.978 135.155 104.656 134.795C105.337 134.436 106.102 134.256 106.95 134.256C107.802 134.256 108.557 134.436 109.215 134.795C109.873 135.155 110.389 135.641 110.763 136.251C111.138 136.862 111.325 137.542 111.325 138.29C111.325 138.825 111.228 139.348 111.033 139.859C110.844 140.366 110.513 140.932 110.039 141.557C109.57 142.177 108.919 142.935 108.086 143.83L104.819 147.324V147.438H111.58V149H102.404ZM119.144 134.256C119.741 134.26 120.337 134.374 120.934 134.597C121.531 134.819 122.075 135.188 122.567 135.705C123.06 136.216 123.455 136.914 123.754 137.8C124.052 138.685 124.201 139.795 124.201 141.131C124.201 142.423 124.078 143.571 123.832 144.575C123.59 145.574 123.24 146.417 122.781 147.104C122.326 147.79 121.772 148.311 121.119 148.666C120.47 149.021 119.736 149.199 118.917 149.199C118.103 149.199 117.376 149.038 116.737 148.716C116.102 148.389 115.581 147.937 115.174 147.359C114.772 146.777 114.513 146.102 114.4 145.335H116.133C116.289 146.003 116.599 146.554 117.063 146.99C117.532 147.421 118.15 147.636 118.917 147.636C120.039 147.636 120.924 147.146 121.573 146.166C122.227 145.186 122.553 143.801 122.553 142.011H122.44C122.174 142.409 121.86 142.752 121.495 143.041C121.13 143.33 120.726 143.553 120.281 143.709C119.835 143.865 119.362 143.943 118.86 143.943C118.027 143.943 117.262 143.737 116.566 143.325C115.875 142.909 115.321 142.338 114.904 141.614C114.492 140.884 114.286 140.051 114.286 139.114C114.286 138.223 114.485 137.409 114.883 136.67C115.285 135.927 115.849 135.335 116.573 134.895C117.302 134.455 118.159 134.241 119.144 134.256ZM119.144 135.818C118.548 135.818 118.01 135.967 117.532 136.266C117.058 136.559 116.682 136.957 116.403 137.459C116.128 137.956 115.991 138.508 115.991 139.114C115.991 139.72 116.123 140.271 116.388 140.768C116.658 141.261 117.025 141.654 117.489 141.947C117.958 142.236 118.491 142.381 119.087 142.381C119.537 142.381 119.956 142.293 120.344 142.118C120.733 141.938 121.071 141.694 121.36 141.386C121.654 141.074 121.883 140.721 122.049 140.328C122.215 139.93 122.298 139.516 122.298 139.085C122.298 138.517 122.16 137.984 121.886 137.487C121.616 136.99 121.242 136.588 120.763 136.28C120.29 135.972 119.75 135.818 119.144 135.818ZM137.733 134.455V149H135.971V136.301H135.886L132.335 138.659V136.869L135.971 134.455H137.733ZM146.745 149.199C146.149 149.189 145.552 149.076 144.956 148.858C144.359 148.64 143.815 148.273 143.322 147.757C142.83 147.236 142.434 146.533 142.136 145.648C141.838 144.758 141.689 143.64 141.689 142.295C141.689 141.008 141.809 139.866 142.051 138.872C142.292 137.873 142.643 137.033 143.102 136.351C143.561 135.664 144.115 135.143 144.764 134.788C145.417 134.433 146.154 134.256 146.973 134.256C147.787 134.256 148.511 134.419 149.146 134.746C149.785 135.068 150.306 135.518 150.708 136.095C151.111 136.673 151.371 137.338 151.49 138.091H149.757C149.596 137.437 149.283 136.895 148.819 136.464C148.355 136.034 147.74 135.818 146.973 135.818C145.846 135.818 144.958 136.308 144.309 137.288C143.665 138.268 143.341 139.644 143.336 141.415H143.45C143.715 141.012 144.03 140.669 144.395 140.385C144.764 140.096 145.171 139.874 145.616 139.717C146.061 139.561 146.532 139.483 147.029 139.483C147.863 139.483 148.625 139.691 149.316 140.108C150.008 140.52 150.562 141.09 150.978 141.82C151.395 142.544 151.603 143.375 151.603 144.312C151.603 145.212 151.402 146.036 151 146.784C150.597 147.527 150.031 148.119 149.302 148.56C148.578 148.995 147.725 149.208 146.745 149.199ZM146.745 147.636C147.342 147.636 147.877 147.487 148.35 147.189C148.829 146.891 149.205 146.491 149.48 145.989C149.759 145.487 149.899 144.928 149.899 144.312C149.899 143.711 149.764 143.164 149.494 142.672C149.229 142.175 148.862 141.779 148.393 141.486C147.929 141.192 147.399 141.045 146.802 141.045C146.352 141.045 145.933 141.135 145.545 141.315C145.157 141.491 144.816 141.732 144.522 142.04C144.234 142.348 144.006 142.7 143.841 143.098C143.675 143.491 143.592 143.905 143.592 144.341C143.592 144.919 143.727 145.458 143.997 145.96C144.271 146.462 144.645 146.867 145.119 147.175C145.597 147.482 146.139 147.636 146.745 147.636ZM159.51 134.455V149H157.749V136.301H157.663L154.112 138.659V136.869L157.749 134.455H159.51Z" fill="black"/>
<path d="M10.1 103.5C12.28 103.88 16.34 103.8 18.32 103.5V105.12C16.18 105.36 12.3 105.36 10.12 105.12L10.1 103.5ZM10.88 111.66C10.7 112.38 10.6 112.94 10.6 113.48C10.6 114.4 11.24 115.3 13.98 115.3C15.76 115.3 17.32 115.14 18.92 114.76L18.96 116.44C17.72 116.7 16.04 116.86 13.96 116.86C10.62 116.86 9.12 115.74 9.12 113.86C9.12 113.2 9.22 112.48 9.44 111.52L10.88 111.66ZM6.3 101.96C6.18 102.3 6.02 102.94 5.94 103.3C5.56 105.16 4.94 108.72 4.94 110.98C4.94 111.94 5 112.78 5.12 113.76C5.46 112.86 5.92 111.66 6.26 110.84L7.1 111.5C6.6 112.92 5.86 115.02 5.68 115.98C5.62 116.26 5.58 116.64 5.58 116.88C5.6 117.08 5.62 117.36 5.64 117.58L4.22 117.68C3.82 116.26 3.48 113.96 3.48 111.24C3.48 108.3 4.14 104.88 4.38 103.22C4.44 102.76 4.5 102.26 4.52 101.82L6.3 101.96ZM37.3778 116.091L36.2841 115.011L40.7869 110.509H29.125V108.946H40.7869L36.2841 104.457L37.3778 103.364L43.7415 109.727L37.3778 116.091ZM52.8377 117V115.722L57.6388 110.466C58.2023 109.85 58.6663 109.315 59.0309 108.861C59.3955 108.402 59.6654 107.971 59.8406 107.568C60.0205 107.161 60.1104 106.735 60.1104 106.29C60.1104 105.778 59.9873 105.336 59.7411 104.962C59.4996 104.588 59.1682 104.299 58.7468 104.095C58.3254 103.892 57.8519 103.79 57.3263 103.79C56.7676 103.79 56.2799 103.906 55.8633 104.138C55.4513 104.365 55.1317 104.685 54.9045 105.097C54.6819 105.509 54.5707 105.991 54.5707 106.545H52.8945C52.8945 105.693 53.091 104.945 53.484 104.301C53.877 103.657 54.4121 103.155 55.0891 102.795C55.771 102.436 56.5356 102.256 57.3832 102.256C58.2354 102.256 58.9906 102.436 59.6488 102.795C60.3069 103.155 60.823 103.641 61.1971 104.251C61.5711 104.862 61.7582 105.542 61.7582 106.29C61.7582 106.825 61.6611 107.348 61.467 107.859C61.2776 108.366 60.9461 108.932 60.4727 109.557C60.0039 110.177 59.3529 110.935 58.5195 111.83L55.2525 115.324V115.438H62.0138V117H52.8377ZM64.9471 117V115.722L69.7482 110.466C70.3117 109.85 70.7757 109.315 71.1403 108.861C71.5049 108.402 71.7747 107.971 71.9499 107.568C72.1299 107.161 72.2198 106.735 72.2198 106.29C72.2198 105.778 72.0967 105.336 71.8505 104.962C71.609 104.588 71.2776 104.299 70.8562 104.095C70.4348 103.892 69.9613 103.79 69.4357 103.79C68.877 103.79 68.3893 103.906 67.9727 104.138C67.5607 104.365 67.2411 104.685 67.0138 105.097C66.7913 105.509 66.68 105.991 66.68 106.545H65.0039C65.0039 105.693 65.2004 104.945 65.5934 104.301C65.9864 103.657 66.5214 103.155 67.1985 102.795C67.8803 102.436 68.645 102.256 69.4925 102.256C70.3448 102.256 71.1 102.436 71.7582 102.795C72.4163 103.155 72.9324 103.641 73.3065 104.251C73.6805 104.862 73.8675 105.542 73.8675 106.29C73.8675 106.825 73.7705 107.348 73.5763 107.859C73.387 108.366 73.0555 108.932 72.582 109.557C72.1133 110.177 71.4622 110.935 70.6289 111.83L67.3619 115.324V115.438H74.1232V117H64.9471ZM77.511 117L84.0167 104.131V104.017H76.5167V102.455H85.8349V104.102L79.3576 117H77.511ZM99.2209 102.455V117H97.4595V104.301H97.3743L93.8232 106.659V104.869L97.4595 102.455H99.2209ZM103.404 117V115.722L108.205 110.466C108.769 109.85 109.233 109.315 109.597 108.861C109.962 108.402 110.232 107.971 110.407 107.568C110.587 107.161 110.677 106.735 110.677 106.29C110.677 105.778 110.554 105.336 110.308 104.962C110.066 104.588 109.735 104.299 109.313 104.095C108.892 103.892 108.418 103.79 107.893 103.79C107.334 103.79 106.846 103.906 106.43 104.138C106.018 104.365 105.698 104.685 105.471 105.097C105.248 105.509 105.137 105.991 105.137 106.545H103.461C103.461 105.693 103.657 104.945 104.05 104.301C104.443 103.657 104.978 103.155 105.656 102.795C106.337 102.436 107.102 102.256 107.95 102.256C108.802 102.256 109.557 102.436 110.215 102.795C110.873 103.155 111.389 103.641 111.763 104.251C112.138 104.862 112.325 105.542 112.325 106.29C112.325 106.825 112.228 107.348 112.033 107.859C111.844 108.366 111.513 108.932 111.039 109.557C110.57 110.177 109.919 110.935 109.086 111.83L105.819 115.324V115.438H112.58V117H103.404ZM120.144 102.256C120.741 102.26 121.337 102.374 121.934 102.597C122.531 102.819 123.075 103.188 123.567 103.705C124.06 104.216 124.455 104.914 124.754 105.8C125.052 106.685 125.201 107.795 125.201 109.131C125.201 110.423 125.078 111.571 124.832 112.575C124.59 113.574 124.24 114.417 123.781 115.104C123.326 115.79 122.772 116.311 122.119 116.666C121.47 117.021 120.736 117.199 119.917 117.199C119.103 117.199 118.376 117.038 117.737 116.716C117.102 116.389 116.581 115.937 116.174 115.359C115.772 114.777 115.513 114.102 115.4 113.335H117.133C117.289 114.003 117.599 114.554 118.063 114.99C118.532 115.421 119.15 115.636 119.917 115.636C121.039 115.636 121.924 115.146 122.573 114.166C123.227 113.186 123.553 111.801 123.553 110.011H123.44C123.174 110.409 122.86 110.752 122.495 111.041C122.13 111.33 121.726 111.553 121.281 111.709C120.835 111.865 120.362 111.943 119.86 111.943C119.027 111.943 118.262 111.737 117.566 111.325C116.875 110.909 116.321 110.338 115.904 109.614C115.492 108.884 115.286 108.051 115.286 107.114C115.286 106.223 115.485 105.409 115.883 104.67C116.285 103.927 116.849 103.335 117.573 102.895C118.302 102.455 119.159 102.241 120.144 102.256ZM120.144 103.818C119.548 103.818 119.01 103.967 118.532 104.266C118.058 104.559 117.682 104.957 117.403 105.459C117.128 105.956 116.991 106.508 116.991 107.114C116.991 107.72 117.123 108.271 117.388 108.768C117.658 109.261 118.025 109.654 118.489 109.947C118.958 110.236 119.491 110.381 120.087 110.381C120.537 110.381 120.956 110.293 121.344 110.118C121.733 109.938 122.071 109.694 122.36 109.386C122.654 109.074 122.883 108.721 123.049 108.328C123.215 107.93 123.298 107.516 123.298 107.085C123.298 106.517 123.16 105.984 122.886 105.487C122.616 104.99 122.242 104.588 121.763 104.28C121.29 103.972 120.75 103.818 120.144 103.818ZM138.733 102.455V117H136.971V104.301H136.886L133.335 106.659V104.869L136.971 102.455H138.733ZM143.37 117L149.876 104.131V104.017H142.376V102.455H151.694V104.102L145.217 117H143.37ZM159.455 102.455V117H157.694V104.301H157.609L154.058 106.659V104.869L157.694 102.455H159.455Z" fill="black"/>
<path d="M10.94 70.16C10.76 70.4 10.52 70.76 10.3 71.14C9.4 72.52 7.56 75.84 6.54 77.78C7.5 76.92 8.54 76.54 9.5 76.54C10.84 76.54 11.8 77.4 11.86 78.98C11.9 80.16 11.86 81.68 11.94 82.66C12 83.66 12.68 84.1 13.54 84.1C15.78 84.1 17.1 81.34 17.6 79.2L18.94 80.28C17.88 83.5 16.2 85.74 13.3 85.74C11.16 85.74 10.46 84.4 10.4 83.22C10.34 82.04 10.36 80.5 10.3 79.4C10.26 78.54 9.74 78 8.84 78C7.24 78 5.72 79.64 4.96 81.22C4.34 82.4 3.5 84.78 3.22 85.76L1.5 85.16C2.96 81.12 7.34 72.92 8.44 71C8.66 70.52 8.92 70.04 9.16 69.44L10.94 70.16ZM36.3778 84.0909L35.2841 83.0114L39.7869 78.5085H28.125V76.946H39.7869L35.2841 72.4574L36.3778 71.3636L42.7415 77.7273L36.3778 84.0909ZM51.8377 85V83.7216L56.6388 78.4659C57.2023 77.8504 57.6663 77.3153 58.0309 76.8608C58.3955 76.4015 58.6654 75.9706 58.8406 75.5682C59.0205 75.161 59.1104 74.7348 59.1104 74.2898C59.1104 73.7784 58.9873 73.3357 58.7411 72.9616C58.4996 72.5876 58.1682 72.2988 57.7468 72.0952C57.3254 71.8916 56.8519 71.7898 56.3263 71.7898C55.7676 71.7898 55.2799 71.9058 54.8633 72.1378C54.4513 72.3651 54.1317 72.6847 53.9045 73.0966C53.6819 73.5085 53.5707 73.9915 53.5707 74.5455H51.8945C51.8945 73.6932 52.091 72.9451 52.484 72.3011C52.877 71.6572 53.4121 71.1553 54.0891 70.7955C54.771 70.4356 55.5356 70.2557 56.3832 70.2557C57.2354 70.2557 57.9906 70.4356 58.6488 70.7955C59.3069 71.1553 59.823 71.6406 60.1971 72.2514C60.5711 72.8622 60.7582 73.5417 60.7582 74.2898C60.7582 74.8248 60.6611 75.348 60.467 75.8594C60.2776 76.366 59.9461 76.9318 59.4727 77.5568C59.0039 78.1771 58.3529 78.9347 57.5195 79.8295L54.2525 83.3239V83.4375H61.0138V85H51.8377ZM63.9471 85V83.7216L68.7482 78.4659C69.3117 77.8504 69.7757 77.3153 70.1403 76.8608C70.5049 76.4015 70.7747 75.9706 70.9499 75.5682C71.1299 75.161 71.2198 74.7348 71.2198 74.2898C71.2198 73.7784 71.0967 73.3357 70.8505 72.9616C70.609 72.5876 70.2776 72.2988 69.8562 72.0952C69.4348 71.8916 68.9613 71.7898 68.4357 71.7898C67.877 71.7898 67.3893 71.9058 66.9727 72.1378C66.5607 72.3651 66.2411 72.6847 66.0138 73.0966C65.7913 73.5085 65.68 73.9915 65.68 74.5455H64.0039C64.0039 73.6932 64.2004 72.9451 64.5934 72.3011C64.9864 71.6572 65.5214 71.1553 66.1985 70.7955C66.8803 70.4356 67.645 70.2557 68.4925 70.2557C69.3448 70.2557 70.1 70.4356 70.7582 70.7955C71.4163 71.1553 71.9324 71.6406 72.3065 72.2514C72.6805 72.8622 72.8675 73.5417 72.8675 74.2898C72.8675 74.8248 72.7705 75.348 72.5763 75.8594C72.387 76.366 72.0555 76.9318 71.582 77.5568C71.1133 78.1771 70.4622 78.9347 69.6289 79.8295L66.3619 83.3239V83.4375H73.1232V85H63.9471ZM76.511 85L83.0167 72.1307V72.017H75.5167V70.4545H84.8349V72.1023L78.3576 85H76.511ZM98.2209 70.4545V85H96.4595V72.3011H96.3743L92.8232 74.6591V72.8693L96.4595 70.4545H98.2209ZM107.319 85.1989C106.381 85.1989 105.546 85.0379 104.812 84.7159C104.083 84.3939 103.503 83.9465 103.072 83.3736C102.646 82.7959 102.414 82.1259 102.376 81.3636H104.165C104.203 81.8324 104.364 82.2372 104.648 82.5781C104.933 82.9143 105.304 83.1747 105.763 83.3594C106.223 83.544 106.732 83.6364 107.29 83.6364C107.915 83.6364 108.469 83.5275 108.952 83.3097C109.435 83.0919 109.814 82.7888 110.089 82.4006C110.363 82.0123 110.501 81.5625 110.501 81.0511C110.501 80.5161 110.368 80.045 110.103 79.6378C109.838 79.2259 109.45 78.9039 108.938 78.6719C108.427 78.4399 107.802 78.3239 107.063 78.3239H105.898V76.7614H107.063C107.641 76.7614 108.147 76.6572 108.583 76.4489C109.023 76.2405 109.367 75.947 109.613 75.5682C109.864 75.1894 109.989 74.7443 109.989 74.233C109.989 73.7405 109.88 73.312 109.663 72.9474C109.445 72.5829 109.137 72.2988 108.739 72.0952C108.346 71.8916 107.882 71.7898 107.347 71.7898C106.845 71.7898 106.372 71.8821 105.927 72.0668C105.487 72.2467 105.127 72.5095 104.847 72.8551C104.568 73.196 104.416 73.608 104.393 74.0909H102.688C102.717 73.3286 102.946 72.661 103.377 72.0881C103.808 71.5104 104.371 71.0606 105.067 70.7386C105.768 70.4167 106.538 70.2557 107.376 70.2557C108.275 70.2557 109.047 70.438 109.691 70.8026C110.335 71.1624 110.83 71.6383 111.175 72.2301C111.521 72.822 111.694 73.4612 111.694 74.1477C111.694 74.9669 111.478 75.6652 111.048 76.2429C110.621 76.8205 110.041 77.2206 109.308 77.4432V77.5568C110.226 77.7083 110.943 78.099 111.46 78.7287C111.976 79.3537 112.234 80.1278 112.234 81.0511C112.234 81.8419 112.018 82.5521 111.587 83.1818C111.161 83.8068 110.579 84.2992 109.84 84.6591C109.102 85.0189 108.261 85.1989 107.319 85.1989ZM119.883 85.1989C118.813 85.1989 117.901 84.9077 117.148 84.3253C116.396 83.7382 115.82 82.8883 115.423 81.7756C115.025 80.6581 114.826 79.3087 114.826 77.7273C114.826 76.1553 115.025 74.813 115.423 73.7003C115.825 72.5829 116.403 71.7306 117.156 71.1435C117.913 70.5516 118.822 70.2557 119.883 70.2557C120.943 70.2557 121.85 70.5516 122.603 71.1435C123.361 71.7306 123.938 72.5829 124.336 73.7003C124.738 74.813 124.94 76.1553 124.94 77.7273C124.94 79.3087 124.741 80.6581 124.343 81.7756C123.945 82.8883 123.37 83.7382 122.617 84.3253C121.864 84.9077 120.953 85.1989 119.883 85.1989ZM119.883 83.6364C120.943 83.6364 121.767 83.125 122.354 82.1023C122.942 81.0795 123.235 79.6212 123.235 77.7273C123.235 76.4678 123.1 75.3954 122.83 74.5099C122.565 73.6245 122.182 72.9498 121.68 72.4858C121.183 72.0218 120.584 71.7898 119.883 71.7898C118.832 71.7898 118.01 72.3082 117.418 73.3452C116.826 74.3774 116.531 75.8381 116.531 77.7273C116.531 78.9867 116.663 80.0568 116.928 80.9375C117.193 81.8182 117.575 82.4882 118.072 82.9474C118.574 83.4067 119.177 83.6364 119.883 83.6364ZM138.377 70.4545V85H136.616V72.3011H136.531L132.979 74.6591V72.8693L136.616 70.4545H138.377ZM142.219 82.017V80.5682L148.612 70.4545H149.663V72.6989H148.952L144.123 80.3409V80.4545H152.731V82.017H142.219ZM149.066 85V81.5767V80.902V70.4545H150.742V85H149.066ZM155.847 85L162.353 72.1307V72.017H154.853V70.4545H164.171V72.1023L157.694 85H155.847Z" fill="black"/>
</svg>
