<svg width="117" height="162" viewBox="0 0 117 162" fill="none" xmlns="http://www.w3.org/2000/svg">
<path d="M30.86 4.16H41.98V5.5H30.86V4.16ZM30.36 8.94H42.34V10.3H30.36V8.94ZM32.76 15.2H40.04V16.4H32.76V15.2ZM32.8 18.46H40.14V19.74H32.8V18.46ZM35.6 2.36H37.08V4.86H35.6V2.36ZM32.58 5.9L33.9 5.66C34.34 6.56 34.8 7.8 34.94 8.6L33.56 8.9C33.44 8.1 33.02 6.84 32.58 5.9ZM38.86 5.6L40.34 5.92C39.92 6.98 39.48 8.16 39.08 8.92L37.84 8.62C38.18 7.8 38.64 6.48 38.86 5.6ZM31.96 11.96H40.98V20.54H39.56V13.2H33.34V20.58H31.96V11.96ZM25.22 3.5H30V16.64H25.22V15.28H28.62V4.86H25.22V3.5ZM25.3 9.34H29.38V10.68H25.3V9.34ZM24.5 3.5H25.88V18.28H24.5V3.5ZM48.2 4.36V7.58H57.94V4.36H48.2ZM46.74 3.04H59.48V8.92H46.74V3.04ZM43.96 10.46H61.98V11.86H43.96V10.46ZM48.24 13.62H58.44V15.02H48.24V13.62ZM57.9 13.62H59.5C59.5 13.62 59.46 14.1 59.42 14.32C58.9 17.84 58.42 19.4 57.66 20.06C57.18 20.48 56.7 20.58 55.92 20.62C55.24 20.66 53.92 20.62 52.52 20.54C52.48 20.12 52.28 19.52 52 19.12C53.42 19.24 54.88 19.26 55.42 19.26C55.9 19.26 56.16 19.24 56.4 19.08C57 18.6 57.46 17.12 57.88 13.84L57.9 13.62ZM48.62 10.84L50.2 11.08C49.66 12.84 48.92 15.02 48.34 16.4L46.74 16.12C47.34 14.74 48.12 12.52 48.62 10.84ZM72.72 2.7H74.24V17.54C74.24 18.66 74.44 18.9 75.56 18.9C76.1 18.9 78.82 18.9 79.5 18.9C80.6 18.9 80.76 18.16 80.9 15.24C81.28 15.52 81.9 15.8 82.34 15.9C82.1 19.18 81.66 20.32 79.58 20.32C79.06 20.32 75.92 20.32 75.46 20.32C73.36 20.32 72.72 19.72 72.72 17.52V2.7ZM80.22 6.02L81.32 7.3C79.3 8.96 76.36 10.58 73.72 11.96C73.62 11.62 73.32 11.1 73.1 10.78C75.66 9.44 78.52 7.58 80.22 6.02ZM69.24 2.52L70.7 3C69.2 6.52 66.8 9.94 64.32 12.16C64.16 11.8 63.7 11.02 63.4 10.66C65.72 8.72 67.92 5.68 69.24 2.52ZM66.96 7.74L68.42 6.28L68.44 6.3V20.58H66.96V7.74Z" fill="black"/>
<path d="M1.50568 53V51.7216L6.30682 46.4659C6.87027 45.8504 7.33428 45.3153 7.69886 44.8608C8.06345 44.4015 8.33333 43.9706 8.50852 43.5682C8.68845 43.161 8.77841 42.7348 8.77841 42.2898C8.77841 41.7784 8.6553 41.3357 8.40909 40.9616C8.16761 40.5876 7.83617 40.2988 7.41477 40.0952C6.99337 39.8916 6.51989 39.7898 5.99432 39.7898C5.43561 39.7898 4.94792 39.9058 4.53125 40.1378C4.11932 40.3651 3.79972 40.6847 3.57244 41.0966C3.34991 41.5085 3.23864 41.9915 3.23864 42.5455H1.5625C1.5625 41.6932 1.759 40.9451 2.15199 40.3011C2.54498 39.6572 3.08002 39.1553 3.7571 38.7955C4.43892 38.4356 5.2036 38.2557 6.05114 38.2557C6.90341 38.2557 7.65862 38.4356 8.31676 38.7955C8.97491 39.1553 9.491 39.6406 9.86506 40.2514C10.2391 40.8622 10.4261 41.5417 10.4261 42.2898C10.4261 42.8248 10.3291 43.348 10.1349 43.8594C9.94555 44.366 9.61411 44.9318 9.14062 45.5568C8.67188 46.1771 8.02083 46.9347 7.1875 47.8295L3.92045 51.3239V51.4375H10.6818V53H1.50568ZM13.6151 53V51.7216L18.4162 46.4659C18.9796 45.8504 19.4437 45.3153 19.8082 44.8608C20.1728 44.4015 20.4427 43.9706 20.6179 43.5682C20.7978 43.161 20.8878 42.7348 20.8878 42.2898C20.8878 41.7784 20.7647 41.3357 20.5185 40.9616C20.277 40.5876 19.9455 40.2988 19.5241 40.0952C19.1027 39.8916 18.6293 39.7898 18.1037 39.7898C17.545 39.7898 17.0573 39.9058 16.6406 40.1378C16.2287 40.3651 15.9091 40.6847 15.6818 41.0966C15.4593 41.5085 15.348 41.9915 15.348 42.5455H13.6719C13.6719 41.6932 13.8684 40.9451 14.2614 40.3011C14.6544 39.6572 15.1894 39.1553 15.8665 38.7955C16.5483 38.4356 17.313 38.2557 18.1605 38.2557C19.0128 38.2557 19.768 38.4356 20.4261 38.7955C21.0843 39.1553 21.6004 39.6406 21.9744 40.2514C22.3485 40.8622 22.5355 41.5417 22.5355 42.2898C22.5355 42.8248 22.4384 43.348 22.2443 43.8594C22.0549 44.366 21.7235 44.9318 21.25 45.5568C20.7812 46.1771 20.1302 46.9347 19.2969 47.8295L16.0298 51.3239V51.4375H22.7912V53H13.6151ZM26.179 53L32.6847 40.1307V40.017H25.1847V38.4545H34.5028V40.1023L28.0256 53H26.179ZM52.0224 52.0909L50.9286 51.0114L55.4315 46.5085H43.7695V44.946H55.4315L50.9286 40.4574L52.0224 39.3636L58.386 45.7273L52.0224 52.0909ZM72.5959 38.4545V53H70.8345V40.3011H70.7493L67.1982 42.6591V40.8693L70.8345 38.4545H72.5959ZM81.4382 53.1989C80.4628 53.1989 79.6011 53.026 78.853 52.6804C78.1096 52.33 77.5296 51.8494 77.1129 51.2386C76.6963 50.6231 76.4903 49.9223 76.495 49.1364C76.4903 48.5208 76.611 47.9527 76.8572 47.4318C77.1035 46.9062 77.4396 46.4683 77.8658 46.1179C78.2966 45.7628 78.7772 45.5379 79.3075 45.4432V45.358C78.6115 45.178 78.0575 44.7874 77.6456 44.1861C77.2337 43.58 77.0301 42.8911 77.0348 42.1193C77.0301 41.3807 77.2171 40.7202 77.5959 40.1378C77.9747 39.5554 78.4955 39.0961 79.1584 38.7599C79.826 38.4238 80.5859 38.2557 81.4382 38.2557C82.281 38.2557 83.0339 38.4238 83.6967 38.7599C84.3596 39.0961 84.8804 39.5554 85.2592 40.1378C85.6428 40.7202 85.8369 41.3807 85.8416 42.1193C85.8369 42.8911 85.6262 43.58 85.2095 44.1861C84.7976 44.7874 84.2507 45.178 83.5689 45.358V45.4432C84.0945 45.5379 84.5679 45.7628 84.9893 46.1179C85.4107 46.4683 85.7469 46.9062 85.9979 47.4318C86.2488 47.9527 86.3767 48.5208 86.3814 49.1364C86.3767 49.9223 86.1636 50.6231 85.7422 51.2386C85.3255 51.8494 84.7455 52.33 84.0021 52.6804C83.2635 53.026 82.4089 53.1989 81.4382 53.1989ZM81.4382 51.6364C82.0964 51.6364 82.6645 51.5298 83.1428 51.3168C83.621 51.1037 83.9903 50.803 84.2507 50.4148C84.5111 50.0265 84.6437 49.572 84.6484 49.0511C84.6437 48.5019 84.5017 48.0166 84.2223 47.5952C83.9429 47.1738 83.5618 46.8423 83.0788 46.6009C82.6006 46.3594 82.0537 46.2386 81.4382 46.2386C80.8179 46.2386 80.264 46.3594 79.7763 46.6009C79.2933 46.8423 78.9122 47.1738 78.6328 47.5952C78.3582 48.0166 78.2232 48.5019 78.228 49.0511C78.2232 49.572 78.3487 50.0265 78.6044 50.4148C78.8648 50.803 79.2365 51.1037 79.7195 51.3168C80.2024 51.5298 80.7753 51.6364 81.4382 51.6364ZM81.4382 44.733C81.959 44.733 82.4207 44.6288 82.8232 44.4205C83.2304 44.2121 83.55 43.9209 83.782 43.5469C84.014 43.1728 84.1323 42.7348 84.1371 42.233C84.1323 41.7405 84.0163 41.312 83.7891 40.9474C83.5618 40.5781 83.2469 40.294 82.8445 40.0952C82.442 39.8916 81.9732 39.7898 81.4382 39.7898C80.8937 39.7898 80.4179 39.8916 80.0107 40.0952C79.6035 40.294 79.2886 40.5781 79.0661 40.9474C78.8435 41.312 78.7346 41.7405 78.7393 42.233C78.7346 42.7348 78.8459 43.1728 79.0732 43.5469C79.3052 43.9209 79.6248 44.2121 80.032 44.4205C80.4392 44.6288 80.9079 44.733 81.4382 44.733ZM89.1033 53V51.7216L93.9045 46.4659C94.4679 45.8504 94.9319 45.3153 95.2965 44.8608C95.6611 44.4015 95.931 43.9706 96.1062 43.5682C96.2861 43.161 96.3761 42.7348 96.3761 42.2898C96.3761 41.7784 96.253 41.3357 96.0067 40.9616C95.7653 40.5876 95.4338 40.2988 95.0124 40.0952C94.591 39.8916 94.1175 39.7898 93.592 39.7898C93.0333 39.7898 92.5456 39.9058 92.1289 40.1378C91.717 40.3651 91.3974 40.6847 91.1701 41.0966C90.9476 41.5085 90.8363 41.9915 90.8363 42.5455H89.1602C89.1602 41.6932 89.3567 40.9451 89.7496 40.3011C90.1426 39.6572 90.6777 39.1553 91.3548 38.7955C92.0366 38.4356 92.8013 38.2557 93.6488 38.2557C94.5011 38.2557 95.2563 38.4356 95.9144 38.7955C96.5726 39.1553 97.0887 39.6406 97.4627 40.2514C97.8368 40.8622 98.0238 41.5417 98.0238 42.2898C98.0238 42.8248 97.9267 43.348 97.7326 43.8594C97.5432 44.366 97.2118 44.9318 96.7383 45.5568C96.2695 46.1771 95.6185 46.9347 94.7852 47.8295L91.5181 51.3239V51.4375H98.2795V53H89.1033ZM106.326 38.4545V53H104.565V40.3011H104.48L100.929 42.6591V40.8693L104.565 38.4545H106.326Z" fill="black"/>
<path d="M9.61932 145.455V160H7.85795V147.301H7.77273L4.22159 149.659V147.869L7.85795 145.455H9.61932ZM14.2571 160L20.7628 147.131V147.017H13.2628V145.455H22.581V147.102L16.1037 160H14.2571ZM29.5785 160.199C28.7451 160.199 27.9947 160.033 27.3271 159.702C26.6594 159.37 26.1244 158.916 25.7219 158.338C25.3195 157.76 25.0993 157.102 25.0614 156.364H26.766C26.8323 157.022 27.1306 157.566 27.6609 157.997C28.1959 158.423 28.8351 158.636 29.5785 158.636C30.1751 158.636 30.7054 158.497 31.1694 158.217C31.6381 157.938 32.0051 157.554 32.2702 157.067C32.5401 156.574 32.6751 156.018 32.6751 155.398C32.6751 154.763 32.5354 154.197 32.256 153.7C31.9814 153.198 31.6026 152.803 31.1197 152.514C30.6367 152.225 30.0851 152.079 29.4648 152.074C29.0198 152.069 28.5629 152.138 28.0941 152.28C27.6254 152.417 27.2395 152.595 26.9364 152.812L25.2887 152.614L26.1694 145.455H33.7262V147.017H27.6467L27.1353 151.307H27.2205C27.5188 151.07 27.8929 150.874 28.3427 150.717C28.7925 150.561 29.2612 150.483 29.7489 150.483C30.6391 150.483 31.4322 150.696 32.1282 151.122C32.829 151.544 33.3782 152.121 33.7759 152.855C34.1784 153.589 34.3796 154.427 34.3796 155.369C34.3796 156.297 34.1713 157.126 33.7546 157.855C33.3427 158.58 32.7745 159.152 32.0501 159.574C31.3256 159.991 30.5018 160.199 29.5785 160.199ZM52.0732 159.091L50.9794 158.011L55.4822 153.509H43.8203V151.946H55.4822L50.9794 147.457L52.0732 146.364L58.4368 152.727L52.0732 159.091ZM72.6467 145.455V160H70.8853V147.301H70.8001L67.2489 149.659V147.869L70.8853 145.455H72.6467ZM76.489 157.017V155.568L82.881 145.455H83.9322V147.699H83.2219L78.3924 155.341V155.455H87.0004V157.017H76.489ZM83.3356 160V156.577V155.902V145.455H85.0117V160H83.3356ZM94.2074 160.199C93.3741 160.199 92.6236 160.033 91.956 159.702C91.2884 159.37 90.7533 158.916 90.3509 158.338C89.9484 157.76 89.7282 157.102 89.6903 156.364H91.3949C91.4612 157.022 91.7595 157.566 92.2898 157.997C92.8248 158.423 93.464 158.636 94.2074 158.636C94.804 158.636 95.3343 158.497 95.7983 158.217C96.267 157.938 96.634 157.554 96.8991 157.067C97.169 156.574 97.304 156.018 97.304 155.398C97.304 154.763 97.1643 154.197 96.8849 153.7C96.6103 153.198 96.2315 152.803 95.7486 152.514C95.2656 152.225 94.714 152.079 94.0938 152.074C93.6487 152.069 93.1918 152.138 92.723 152.28C92.2543 152.417 91.8684 152.595 91.5653 152.812L89.9176 152.614L90.7983 145.455H98.3551V147.017H92.2756L91.7642 151.307H91.8494C92.1477 151.07 92.5218 150.874 92.9716 150.717C93.4214 150.561 93.8902 150.483 94.3778 150.483C95.268 150.483 96.0611 150.696 96.7571 151.122C97.4579 151.544 98.0071 152.121 98.4048 152.855C98.8073 153.589 99.0085 154.427 99.0085 155.369C99.0085 156.297 98.8002 157.126 98.3835 157.855C97.9716 158.58 97.4034 159.152 96.679 159.574C95.9545 159.991 95.1307 160.199 94.2074 160.199ZM106.944 145.455V160H105.182V147.301H105.097L101.546 149.659V147.869L105.182 145.455H106.944Z" fill="black"/>
<path d="M7.61932 70.4545V85H5.85795V72.3011H5.77273L2.22159 74.6591V72.8693L5.85795 70.4545H7.61932ZM11.8026 85V83.7216L16.6037 78.4659C17.1671 77.8504 17.6312 77.3153 17.9957 76.8608C18.3603 76.4015 18.6302 75.9706 18.8054 75.5682C18.9853 75.161 19.0753 74.7348 19.0753 74.2898C19.0753 73.7784 18.9522 73.3357 18.706 72.9616C18.4645 72.5876 18.133 72.2988 17.7116 72.0952C17.2902 71.8916 16.8168 71.7898 16.2912 71.7898C15.7325 71.7898 15.2448 71.9058 14.8281 72.1378C14.4162 72.3651 14.0966 72.6847 13.8693 73.0966C13.6468 73.5085 13.5355 73.9915 13.5355 74.5455H11.8594C11.8594 73.6932 12.0559 72.9451 12.4489 72.3011C12.8419 71.6572 13.3769 71.1553 14.054 70.7955C14.7358 70.4356 15.5005 70.2557 16.348 70.2557C17.2003 70.2557 17.9555 70.4356 18.6136 70.7955C19.2718 71.1553 19.7879 71.6406 20.1619 72.2514C20.536 72.8622 20.723 73.5417 20.723 74.2898C20.723 74.8248 20.6259 75.348 20.4318 75.8594C20.2424 76.366 19.911 76.9318 19.4375 77.5568C18.9688 78.1771 18.3177 78.9347 17.4844 79.8295L14.2173 83.3239V83.4375H20.9787V85H11.8026ZM28.5426 70.2557C29.1392 70.2604 29.7358 70.3741 30.3324 70.5966C30.929 70.8191 31.4735 71.1884 31.9659 71.7045C32.4583 72.2159 32.8537 72.9143 33.152 73.7997C33.4503 74.6851 33.5994 75.7955 33.5994 77.1307C33.5994 78.4233 33.4763 79.5715 33.2301 80.5753C32.9886 81.5743 32.6383 82.4171 32.179 83.1037C31.7244 83.7902 31.1705 84.3111 30.517 84.6662C29.8684 85.0213 29.1345 85.1989 28.3153 85.1989C27.5009 85.1989 26.7741 85.0379 26.1349 84.7159C25.5005 84.3892 24.9796 83.937 24.5724 83.3594C24.17 82.777 23.9119 82.1023 23.7983 81.3352H25.5312C25.6875 82.0028 25.9976 82.5545 26.4616 82.9901C26.9304 83.4209 27.5483 83.6364 28.3153 83.6364C29.4375 83.6364 30.3229 83.1463 30.9716 82.1662C31.625 81.1861 31.9517 79.8011 31.9517 78.0114H31.8381C31.5729 78.4091 31.258 78.7524 30.8935 79.0412C30.5289 79.33 30.1241 79.5526 29.679 79.7088C29.2339 79.8651 28.7604 79.9432 28.2585 79.9432C27.4252 79.9432 26.6605 79.7372 25.9645 79.3253C25.2732 78.9086 24.7192 78.3381 24.3026 77.6136C23.8906 76.8845 23.6847 76.0511 23.6847 75.1136C23.6847 74.2235 23.8835 73.4091 24.2812 72.6705C24.6837 71.9271 25.2472 71.3352 25.9716 70.8949C26.7008 70.4545 27.5578 70.2415 28.5426 70.2557ZM28.5426 71.8182C27.946 71.8182 27.4086 71.9673 26.9304 72.2656C26.4569 72.5592 26.0805 72.9569 25.8011 73.4588C25.5265 73.956 25.3892 74.5076 25.3892 75.1136C25.3892 75.7197 25.5218 76.2713 25.7869 76.7685C26.0568 77.2609 26.4238 77.6539 26.8878 77.9474C27.3565 78.2363 27.8892 78.3807 28.4858 78.3807C28.9356 78.3807 29.3546 78.2931 29.7429 78.1179C30.1312 77.938 30.4697 77.6941 30.7585 77.3864C31.0521 77.0739 31.2817 76.7211 31.4474 76.3281C31.6132 75.9304 31.696 75.5161 31.696 75.0852C31.696 74.517 31.5587 73.9844 31.2841 73.4872C31.0142 72.9901 30.6402 72.5876 30.1619 72.2798C29.6884 71.9721 29.1487 71.8182 28.5426 71.8182ZM51.2646 84.0909L50.1708 83.0114L54.6737 78.5085H43.0117V76.946H54.6737L50.1708 72.4574L51.2646 71.3636L57.6282 77.7273L51.2646 84.0909ZM71.6392 85.1989C70.7017 85.1989 69.866 85.0379 69.1321 84.7159C68.4029 84.3939 67.8229 83.9465 67.392 83.3736C66.9659 82.7959 66.7339 82.1259 66.696 81.3636H68.4858C68.5237 81.8324 68.6847 82.2372 68.9688 82.5781C69.2528 82.9143 69.6245 83.1747 70.0838 83.3594C70.5431 83.544 71.0521 83.6364 71.6108 83.6364C72.2358 83.6364 72.7898 83.5275 73.2727 83.3097C73.7557 83.0919 74.1345 82.7888 74.4091 82.4006C74.6837 82.0123 74.821 81.5625 74.821 81.0511C74.821 80.5161 74.6884 80.045 74.4233 79.6378C74.1581 79.2259 73.7699 78.9039 73.2585 78.6719C72.7472 78.4399 72.1222 78.3239 71.3835 78.3239H70.2188V76.7614H71.3835C71.9612 76.7614 72.4678 76.6572 72.9034 76.4489C73.3438 76.2405 73.687 75.947 73.9332 75.5682C74.1842 75.1894 74.3097 74.7443 74.3097 74.233C74.3097 73.7405 74.2008 73.312 73.983 72.9474C73.7652 72.5829 73.4574 72.2988 73.0597 72.0952C72.6667 71.8916 72.2027 71.7898 71.6676 71.7898C71.1657 71.7898 70.6922 71.8821 70.2472 72.0668C69.8068 72.2467 69.447 72.5095 69.1676 72.8551C68.8883 73.196 68.7367 73.608 68.7131 74.0909H67.0085C67.0369 73.3286 67.2666 72.661 67.6974 72.0881C68.1283 71.5104 68.6918 71.0606 69.3878 70.7386C70.0885 70.4167 70.858 70.2557 71.696 70.2557C72.5956 70.2557 73.3674 70.438 74.0114 70.8026C74.6553 71.1624 75.1501 71.6383 75.4957 72.2301C75.8414 72.822 76.0142 73.4612 76.0142 74.1477C76.0142 74.9669 75.7988 75.6652 75.3679 76.2429C74.9418 76.8205 74.3617 77.2206 73.6278 77.4432V77.5568C74.5464 77.7083 75.2637 78.099 75.7798 78.7287C76.2959 79.3537 76.554 80.1278 76.554 81.0511C76.554 81.8419 76.3385 82.5521 75.9077 83.1818C75.4815 83.8068 74.8991 84.2992 74.1605 84.6591C73.4219 85.0189 72.5814 85.1989 71.6392 85.1989ZM79.4588 85V83.7216L84.2599 78.4659C84.8234 77.8504 85.2874 77.3153 85.652 76.8608C86.0166 76.4015 86.2865 75.9706 86.4616 75.5682C86.6416 75.161 86.7315 74.7348 86.7315 74.2898C86.7315 73.7784 86.6084 73.3357 86.3622 72.9616C86.1207 72.5876 85.7893 72.2988 85.3679 72.0952C84.9465 71.8916 84.473 71.7898 83.9474 71.7898C83.3887 71.7898 82.901 71.9058 82.4844 72.1378C82.0724 72.3651 81.7528 72.6847 81.5256 73.0966C81.303 73.5085 81.1918 73.9915 81.1918 74.5455H79.5156C79.5156 73.6932 79.7121 72.9451 80.1051 72.3011C80.4981 71.6572 81.0331 71.1553 81.7102 70.7955C82.392 70.4356 83.1567 70.2557 84.0043 70.2557C84.8565 70.2557 85.6117 70.4356 86.2699 70.7955C86.928 71.1553 87.4441 71.6406 87.8182 72.2514C88.1922 72.8622 88.3793 73.5417 88.3793 74.2898C88.3793 74.8248 88.2822 75.348 88.0881 75.8594C87.8987 76.366 87.5672 76.9318 87.0938 77.5568C86.625 78.1771 85.974 78.9347 85.1406 79.8295L81.8736 83.3239V83.4375H88.6349V85H79.4588ZM96.2273 85.1989C95.2519 85.1989 94.3902 85.026 93.642 84.6804C92.8987 84.33 92.3187 83.8494 91.902 83.2386C91.4853 82.6231 91.2794 81.9223 91.2841 81.1364C91.2794 80.5208 91.4001 79.9527 91.6463 79.4318C91.8925 78.9062 92.2287 78.4683 92.6548 78.1179C93.0857 77.7628 93.5663 77.5379 94.0966 77.4432V77.358C93.4006 77.178 92.8466 76.7874 92.4347 76.1861C92.0227 75.58 91.8191 74.8911 91.8239 74.1193C91.8191 73.3807 92.0062 72.7202 92.3849 72.1378C92.7637 71.5554 93.2846 71.0961 93.9474 70.7599C94.6151 70.4238 95.375 70.2557 96.2273 70.2557C97.0701 70.2557 97.8229 70.4238 98.4858 70.7599C99.1487 71.0961 99.6695 71.5554 100.048 72.1378C100.432 72.7202 100.626 73.3807 100.631 74.1193C100.626 74.8911 100.415 75.58 99.9986 76.1861C99.5866 76.7874 99.0398 77.178 98.358 77.358V77.4432C98.8835 77.5379 99.357 77.7628 99.7784 78.1179C100.2 78.4683 100.536 78.9062 100.787 79.4318C101.038 79.9527 101.166 80.5208 101.17 81.1364C101.166 81.9223 100.953 82.6231 100.531 83.2386C100.115 83.8494 99.5346 84.33 98.7912 84.6804C98.0526 85.026 97.1979 85.1989 96.2273 85.1989ZM96.2273 83.6364C96.8854 83.6364 97.4536 83.5298 97.9318 83.3168C98.41 83.1037 98.7794 82.803 99.0398 82.4148C99.3002 82.0265 99.4328 81.572 99.4375 81.0511C99.4328 80.5019 99.2907 80.0166 99.0114 79.5952C98.732 79.1738 98.3509 78.8423 97.8679 78.6009C97.3897 78.3594 96.8428 78.2386 96.2273 78.2386C95.607 78.2386 95.053 78.3594 94.5653 78.6009C94.0824 78.8423 93.7012 79.1738 93.4219 79.5952C93.1473 80.0166 93.0123 80.5019 93.017 81.0511C93.0123 81.572 93.1378 82.0265 93.3935 82.4148C93.6539 82.803 94.0256 83.1037 94.5085 83.3168C94.9915 83.5298 95.5644 83.6364 96.2273 83.6364ZM96.2273 76.733C96.7481 76.733 97.2098 76.6288 97.6122 76.4205C98.0194 76.2121 98.339 75.9209 98.571 75.5469C98.803 75.1728 98.9214 74.7348 98.9261 74.233C98.9214 73.7405 98.8054 73.312 98.5781 72.9474C98.3509 72.5781 98.036 72.294 97.6335 72.0952C97.2311 71.8916 96.7623 71.7898 96.2273 71.7898C95.6828 71.7898 95.2069 71.8916 94.7997 72.0952C94.3925 72.294 94.0777 72.5781 93.8551 72.9474C93.6326 73.312 93.5237 73.7405 93.5284 74.233C93.5237 74.7348 93.6349 75.1728 93.8622 75.5469C94.0942 75.9209 94.4138 76.2121 94.821 76.4205C95.2282 76.6288 95.697 76.733 96.2273 76.733Z" fill="black"/>
<path d="M49 101.168C49.696 101.168 50.272 101.744 50.272 102.44C50.272 103.148 49.696 103.724 49 103.724C48.292 103.724 47.716 103.148 47.716 102.44C47.716 101.744 48.292 101.168 49 101.168ZM49 116.168C49.696 116.168 50.272 116.744 50.272 117.44C50.272 118.148 49.696 118.724 49 118.724C48.292 118.724 47.716 118.148 47.716 117.44C47.716 116.744 48.292 116.168 49 116.168ZM49 131.168C49.696 131.168 50.272 131.744 50.272 132.44C50.272 133.148 49.696 133.724 49 133.724C48.292 133.724 47.716 133.148 47.716 132.44C47.716 131.744 48.292 131.168 49 131.168Z" fill="black"/>
</svg>
